<svg width="14" height="15" viewBox="0 0 14 15" fill="none" xmlns="http://www.w3.org/2000/svg">
<path d="M0.0612444 0.515625C0.123744 0.390625 0.205776 0.296875 0.307338 0.234375C0.408901 0.171875 0.522182 0.140625 0.647182 0.140625H13.3503C13.4753 0.140625 13.5886 0.171875 13.6902 0.234375C13.7917 0.296875 13.8737 0.390625 13.9362 0.515625C13.9831 0.625 14.0027 0.742188 13.9948 0.867188C13.987 0.992188 13.9441 1.10156 13.8659 1.19531L9.85812 6.1875C9.77999 6.28125 9.7214 6.38672 9.68234 6.50391C9.64328 6.62109 9.62374 6.74219 9.62374 6.86719V12.6094C9.62374 13.0312 9.47531 13.3906 9.17843 13.6875C8.88156 13.9844 8.52218 14.1328 8.10031 14.1328H5.89718C5.47531 14.1328 5.11593 13.9844 4.81906 13.6875C4.52218 13.3906 4.37374 13.0312 4.37374 12.6094V6.86719C4.37374 6.74219 4.35421 6.62109 4.31515 6.50391C4.27609 6.38672 4.21749 6.28125 4.13937 6.1875L0.131557 1.19531C0.0534319 1.10156 0.0104632 0.992188 0.00265067 0.867188C-0.00516183 0.742188 0.0143694 0.625 0.0612444 0.515625ZM2.02999 1.45312L5.17062 5.36719C5.32687 5.58594 5.45187 5.82422 5.54562 6.08203C5.63937 6.33984 5.68624 6.60156 5.68624 6.86719V12.6094C5.68624 12.6719 5.70578 12.7227 5.74484 12.7617C5.7839 12.8008 5.83468 12.8203 5.89718 12.8203H8.10031C8.16281 12.8203 8.21359 12.8008 8.25265 12.7617C8.29171 12.7227 8.31124 12.6719 8.31124 12.6094V6.86719C8.31124 6.60156 8.35812 6.33984 8.45187 6.08203C8.54562 5.82422 8.67062 5.58594 8.82687 5.36719L11.9675 1.45312H2.02999Z" fill="#104627"/>
</svg>
