<svg width="69" height="67" viewBox="0 0 69 67" fill="none" xmlns="http://www.w3.org/2000/svg">
<path d="M37.3202 42.5499C37.3202 42.5499 37.3202 42.4899 37.3202 42.4599C37.2402 42.3499 37.2502 42.2199 37.2602 42.0899C37.2602 41.9299 37.2202 41.8099 37.0902 41.7199C37.0902 41.6399 37.0902 41.5599 37.0802 41.4899C36.9602 41.2999 37.0202 41.0899 37.0202 40.8899C37.0202 40.7399 36.9802 40.6099 36.8502 40.5199V40.1399C36.7102 39.8799 36.7902 39.5899 36.7802 39.3199C36.7802 39.1599 36.7502 39.0199 36.6102 38.9299C36.6102 38.7699 36.6102 38.6099 36.6102 38.4599C36.5202 38.3499 36.5402 38.2199 36.5402 38.0899C36.5402 37.4299 36.5402 36.7699 36.5402 36.0999C36.5402 35.9399 36.5202 35.7999 36.3702 35.7099C36.2502 35.6999 36.1002 35.7299 36.1202 35.5199C36.1202 35.4599 36.0502 35.4699 36.0102 35.4699C35.9602 35.4699 35.9002 35.4699 35.9002 35.4099C35.9202 35.1899 35.7502 35.2499 35.6402 35.2299C35.5202 35.2199 35.4102 35.2399 35.4002 35.0499C35.4002 34.9299 35.2602 34.9999 35.1802 34.9799C35.0802 34.9499 34.9202 35.0199 34.9402 34.8099C34.9402 34.7499 34.8802 34.7399 34.8402 34.7399C34.7902 34.7399 34.7102 34.7399 34.7102 34.6999C34.7102 34.4299 34.5002 34.5199 34.3702 34.4899C34.2802 34.4699 34.2102 34.4699 34.2202 34.3599C34.2202 34.2899 34.1902 34.2499 34.1202 34.2599C34.0102 34.2599 33.9502 34.2299 33.9602 34.1099C33.9602 34.0499 33.9202 34.0299 33.8702 34.0299C33.7402 34.0299 33.6202 33.9799 33.4902 34.0199C33.3502 34.1199 33.3202 34.2599 33.3202 34.4199C33.3202 35.0299 33.3202 35.6299 33.3202 36.2399C33.3202 36.3599 33.3202 36.4799 33.2502 36.5899C33.2502 36.9399 33.2502 37.2899 33.2402 37.6399C33.1102 37.7299 33.0602 37.8499 33.0702 38.0099C33.0702 38.1299 33.0902 38.2699 33.0102 38.3799C33.0102 38.7099 33.0002 39.0399 32.9902 39.3599C32.9902 39.4199 32.9902 39.5099 32.9802 39.5199C32.5902 39.6699 32.8402 40.0099 32.7602 40.2399C32.7602 40.2499 32.7602 40.2699 32.7602 40.2899C32.5302 40.3799 32.6402 40.6299 32.5302 40.7799C32.5302 40.9299 32.5302 41.0799 32.5202 41.2399C32.5202 41.3499 32.5702 41.4999 32.3502 41.5099C32.2402 41.5099 32.3002 41.6599 32.2902 41.7399C32.2702 41.8499 32.3302 42.0099 32.1202 42.0099C32.0402 42.0099 32.0702 42.0999 32.0702 42.1499C32.0702 42.3199 32.0702 42.4899 32.0502 42.6499C32.0402 42.7699 32.1102 42.9399 31.8702 42.9699C31.7702 42.9799 31.8302 43.1499 31.8202 43.2499C31.8102 43.3399 31.8402 43.4499 31.6802 43.4399C31.5902 43.4399 31.5902 43.4999 31.5802 43.5699C31.5802 43.6899 31.5702 43.8099 31.5602 43.9299C31.5602 44.0399 31.5702 44.1399 31.4002 44.1599C31.2702 44.1799 31.3502 44.3399 31.3302 44.4299C31.3102 44.5299 31.3402 44.6299 31.1802 44.6399C31.0402 44.6399 31.1302 44.7999 31.0902 44.8799C30.9802 44.9499 30.9002 45.0399 30.9102 45.1899C30.9102 45.2499 30.9002 45.3199 30.8502 45.3599C30.7402 45.4299 30.6602 45.5199 30.6702 45.6699C30.6702 45.7299 30.6602 45.7999 30.6102 45.8399C30.4502 45.8399 30.3702 45.8799 30.3802 46.0699C30.3802 46.1799 30.4302 46.3499 30.2002 46.3499C30.1202 46.3499 30.1602 46.4699 30.1502 46.5299C30.1402 46.6199 30.1302 46.6999 30.1302 46.7899C30.0402 46.8599 29.9502 46.9399 29.9002 47.0399C29.6602 47.2199 29.4802 47.4499 29.4202 47.7599C29.3902 47.8599 29.4502 48.0199 29.2402 47.9999C29.2002 47.9999 29.1702 48.0399 29.1702 48.0799C29.1702 48.1799 29.1502 48.2499 29.0202 48.2399C28.9602 48.2399 28.9302 48.2699 28.9302 48.3299C28.9302 48.4399 28.9102 48.4999 28.7802 48.4899C28.7102 48.4899 28.6802 48.5299 28.6902 48.5999C28.6902 48.6799 28.6702 48.7399 28.5702 48.7399C28.4702 48.7399 28.4502 48.7899 28.4502 48.8699C28.4502 48.9199 28.4502 48.9799 28.3802 48.9799C28.1702 48.9599 28.2402 49.1199 28.2102 49.2199C27.9602 49.4499 27.7202 49.6899 27.4902 49.9399C27.3902 49.9599 27.2302 49.9099 27.2502 50.1099C27.2502 50.1799 27.1802 50.1899 27.1302 50.1899C27.0702 50.1899 27.0202 50.2099 27.0202 50.2799C27.0202 50.3999 26.9702 50.4299 26.8602 50.4299C26.8002 50.4299 26.7702 50.4599 26.7702 50.5199C26.7702 50.6399 26.7202 50.6799 26.6102 50.6699C26.5502 50.6699 26.5202 50.6999 26.5202 50.7599C26.5202 50.8799 26.4702 50.9199 26.3602 50.9099C26.3302 50.9099 26.2802 50.9399 26.2802 50.9499C26.3002 51.2199 26.0802 51.1399 25.9502 51.1599C25.8602 51.1799 25.7902 51.1799 25.8002 51.2899C25.8002 51.3799 25.7502 51.3999 25.6702 51.3899C25.5902 51.3899 25.5502 51.4099 25.5502 51.4999C25.5502 51.5899 25.5102 51.6299 25.4202 51.6299C25.3802 51.6299 25.3102 51.6499 25.3102 51.6599C25.3002 51.9399 25.0802 51.8499 24.9302 51.8799C24.8902 51.8799 24.8302 51.8799 24.8302 51.9199C24.8402 52.1599 24.6602 52.0999 24.5302 52.1099C24.4202 52.1199 24.3402 52.1099 24.3302 52.2699C24.3102 52.4099 24.1602 52.3299 24.0602 52.3499C23.9602 52.3799 23.8602 52.3399 23.8502 52.4999C23.8502 52.6399 23.6902 52.5499 23.6102 52.5899C23.5302 52.6599 23.4402 52.6499 23.3402 52.6599C23.1702 52.6599 22.9902 52.6299 22.8902 52.8299C22.8602 52.8899 22.7802 52.8899 22.7202 52.8899C22.5802 52.8899 22.4802 52.9499 22.4102 53.0699C22.3002 53.1599 22.1702 53.1399 22.0502 53.1399C21.9002 53.1399 21.7702 53.1699 21.6902 53.3099C21.5102 53.4399 21.3102 53.3699 21.1102 53.3799C20.9502 53.3799 20.8102 53.4099 20.7202 53.5499C20.6602 53.5499 20.6002 53.5499 20.5302 53.5499C20.4502 53.6199 20.3602 53.6299 20.2602 53.6299C19.7802 53.6299 19.3102 53.6299 18.8302 53.6299C18.7302 53.6299 18.6402 53.6299 18.5602 53.5499C18.4902 53.4399 18.4002 53.3599 18.2502 53.3699C18.1902 53.3699 18.1202 53.3599 18.0802 53.3099C17.9202 53.3199 17.8402 53.2799 17.8402 53.0899C17.8402 52.9899 17.8802 52.8299 17.6602 52.8199C17.5602 52.8199 17.6302 52.6699 17.5902 52.5899C17.5502 52.4799 17.4602 52.3999 17.3602 52.3399C17.2702 52.2499 17.2802 52.1299 17.2802 52.0199C17.2802 51.1899 17.2802 50.3599 17.2802 49.5299C17.2802 49.4199 17.2802 49.2999 17.3602 49.2099C17.5002 49.1299 17.5402 48.9999 17.5302 48.8399C17.5302 48.6499 17.5302 48.4599 17.5302 48.2699C17.5302 48.1699 17.5302 48.0799 17.6002 47.9999C17.7402 47.9199 17.7802 47.7899 17.7702 47.6399C17.7702 47.5199 17.7502 47.3799 17.8302 47.2699C17.9702 47.1899 18.0102 47.0699 18.0002 46.9099C18.0002 46.7899 17.9802 46.6499 18.0602 46.5399C18.0602 46.4599 18.0602 46.3799 18.0602 46.3099C18.1702 46.2299 18.2502 46.1399 18.2302 45.9999C18.2302 45.9399 18.2402 45.8699 18.2902 45.8199C18.2902 45.7199 18.3002 45.6099 18.2902 45.5099C18.2902 45.4099 18.2902 45.3299 18.4202 45.3399C18.5102 45.3399 18.5102 45.2699 18.5102 45.2099C18.5102 45.0699 18.5302 44.9399 18.5302 44.7999C18.5302 44.7099 18.5302 44.6199 18.6602 44.6199C18.8002 44.6199 18.7402 44.4899 18.7602 44.4199C18.7902 44.2999 18.7002 44.1099 18.9402 44.1099C19.0002 44.1099 18.9802 44.0399 18.9902 43.9899C18.9902 43.8499 19.0002 43.6999 19.0102 43.5599C19.0102 43.5099 18.9902 43.4199 19.0702 43.4199C19.2802 43.4299 19.2402 43.2899 19.2502 43.1699C19.3602 43.0999 19.4402 43.0099 19.4302 42.8599C19.4302 42.7999 19.4402 42.7299 19.4902 42.6799C19.4902 42.5799 19.5102 42.4799 19.5102 42.3799C19.5102 42.2899 19.5102 42.2199 19.6402 42.2099C19.8002 42.1999 19.7002 42.0499 19.7402 41.9699C19.8502 41.8999 19.9302 41.8099 19.9202 41.6599C19.9202 41.5999 19.9302 41.5299 19.9802 41.4899C19.9802 41.3699 19.9502 41.2399 20.1602 41.2299C20.2702 41.2299 20.2002 41.0499 20.2202 40.9499C20.2402 40.8599 20.2002 40.7599 20.3602 40.7499C20.5302 40.7399 20.4302 40.5799 20.4602 40.4999C20.4902 40.3999 20.4302 40.2599 20.6202 40.2799C20.7002 40.2799 20.6902 40.2099 20.6902 40.1599C20.6902 40.0199 20.7102 39.8899 20.7102 39.7499C20.7102 39.6499 20.7102 39.5699 20.8402 39.5799C20.9502 39.5799 20.9202 39.4899 20.9402 39.4299C20.9702 39.2999 20.8702 39.0899 21.1402 39.0799C21.2102 39.0799 21.1502 38.8999 21.1902 38.8899C21.4702 38.8199 21.4002 38.5999 21.4302 38.4099C21.4302 38.3999 21.4402 38.3699 21.4502 38.3699C21.7702 38.3399 21.6202 38.0899 21.6602 37.9299C21.6902 37.8099 21.6002 37.6199 21.8502 37.6299C21.9102 37.6299 21.9002 37.5599 21.9002 37.5099C21.9002 37.4599 21.9002 37.3899 21.9402 37.3899C22.1802 37.3899 22.1202 37.2199 22.1302 37.0899C22.1402 36.9799 22.1302 36.8999 22.2902 36.8799C22.4302 36.8599 22.3502 36.7099 22.3702 36.6099C22.4002 36.5099 22.3502 36.3999 22.5202 36.3999C22.6302 36.3999 22.5902 36.2999 22.6002 36.2399C22.6302 36.1099 22.5402 35.9299 22.8002 35.9099C22.8802 35.9099 22.8402 35.7399 22.8502 35.6499C22.8702 35.5499 22.8502 35.4499 23.0102 35.4399C23.1502 35.4299 23.0702 35.2799 23.0902 35.1999C23.1202 35.0999 23.0702 34.9799 23.2502 34.9699C23.3602 34.9699 23.3002 34.8399 23.3202 34.7699C23.3502 34.6599 23.2702 34.4899 23.5002 34.4799C23.6102 34.4799 23.5302 34.3299 23.5702 34.2499C23.8102 34.0599 24.0002 33.8399 24.0402 33.5199C24.1602 33.4599 24.2302 33.3599 24.2202 33.2199C24.2202 33.1599 24.2302 33.0899 24.2802 33.0499C24.3002 32.9499 24.2402 32.7999 24.4402 32.7999C24.5502 32.7999 24.5002 32.6899 24.5102 32.6299C24.5402 32.4999 24.4502 32.3199 24.7102 32.2999C24.8002 32.2999 24.7502 32.1299 24.7702 32.0399C24.7902 31.9399 24.7702 31.8399 24.9202 31.8399C25.0602 31.8399 24.9802 31.6899 25.0102 31.6099C25.2602 31.3899 25.2502 31.0599 25.0002 30.8899C24.9002 30.8599 24.7402 30.9099 24.7702 30.7099C24.7802 30.6299 24.7002 30.6399 24.6502 30.6399C24.5902 30.6399 24.5302 30.6299 24.5402 30.5499C24.5402 30.4399 24.5002 30.3899 24.3902 30.3999C24.3302 30.3999 24.3002 30.3699 24.3002 30.3099C24.3002 30.1999 24.2602 30.1499 24.1502 30.1499C24.0902 30.1499 24.0602 30.1199 24.0602 30.0599C24.0602 29.9499 24.0202 29.8999 23.9102 29.9099C23.8402 29.9099 23.8102 29.8699 23.8202 29.7999C23.8202 29.7099 23.7802 29.6699 23.6902 29.6699C23.6302 29.6699 23.5802 29.6499 23.5802 29.5799C23.5802 29.4699 23.5402 29.4199 23.4302 29.4299C23.3502 29.4299 23.3402 29.3799 23.3402 29.3199C23.3402 29.2299 23.3002 29.1899 23.2102 29.1899C23.1402 29.1899 23.1002 29.1699 23.1002 29.0899C23.1002 29.0699 23.1002 29.0299 23.1002 29.0199C22.9702 28.9499 22.8702 28.8499 22.7902 28.7199C22.7502 28.6599 22.6102 28.6499 22.6202 28.5099C22.3902 28.5399 22.4402 28.2099 22.2302 28.2199C22.1702 28.2199 22.1502 28.1799 22.1502 28.1299C22.1502 28.0999 22.1502 28.0699 22.1402 28.0299C21.9102 28.0699 21.9602 27.7499 21.7502 27.7299C21.6002 27.7199 21.6802 27.5599 21.6502 27.4699C21.6202 27.3699 21.6402 27.2599 21.4802 27.2799C21.4102 27.2799 21.4002 27.2199 21.4002 27.1599C21.4002 27.0999 21.4002 27.0399 21.3102 27.0499C21.2002 27.0499 21.1502 27.0099 21.1602 26.8999C21.1602 26.8199 21.1202 26.7999 21.0502 26.8099C20.9602 26.8099 20.9202 26.7799 20.9202 26.6799C20.9202 26.6199 20.9202 26.5599 20.8302 26.5699C20.7102 26.5699 20.6702 26.5199 20.6802 26.4099C20.6802 26.3499 20.6502 26.3199 20.5902 26.3199C20.4802 26.3199 20.4302 26.2899 20.4302 26.1699C20.4302 26.0099 20.2802 26.1099 20.2102 26.0599C20.1702 25.7799 20.0102 25.6199 19.7302 25.5699C19.7102 25.4699 19.7702 25.3099 19.5602 25.3299C19.4802 25.3299 19.4802 25.2599 19.4802 25.2099C19.4802 25.1499 19.4802 25.0899 19.3902 25.0899C19.2702 25.0899 19.2302 25.0399 19.2402 24.9299C19.2402 24.8999 19.2102 24.8499 19.2002 24.8499C18.9502 24.8699 19.0102 24.6699 18.9902 24.5399C18.9702 24.4499 18.9902 24.3599 18.8502 24.3699C18.7602 24.3699 18.7502 24.3099 18.7502 24.2399C18.7502 24.1799 18.7402 24.1199 18.6602 24.1299C18.5402 24.1299 18.5102 24.0799 18.5102 23.9699C18.5102 23.9099 18.4802 23.8799 18.4202 23.8799C18.3002 23.8799 18.2602 23.8299 18.2702 23.7199C18.2702 23.6799 18.2502 23.6399 18.2002 23.6399C18.0802 23.6399 18.0202 23.5999 18.0302 23.4699C18.0302 23.3899 17.9702 23.3899 17.9102 23.3799C17.8502 23.3799 17.7902 23.3799 17.8002 23.2899C17.8102 23.1599 17.7502 23.1399 17.6302 23.1199C17.4902 23.0899 17.5702 22.9399 17.5402 22.8499C17.5102 22.7599 17.5402 22.6499 17.3902 22.6599C17.3202 22.6599 17.2902 22.6099 17.3002 22.5499C17.3002 22.4599 17.2702 22.4199 17.1702 22.4199C17.1102 22.4199 17.0602 22.3999 17.0602 22.3299C17.0602 22.2199 17.0302 22.1599 16.9102 22.1699C16.8502 22.1699 16.8202 22.1299 16.8302 22.0799C16.8302 21.9699 16.8002 21.9199 16.6802 21.9199C16.5402 21.9199 16.6202 21.7799 16.5902 21.7099C16.5502 21.6099 16.6202 21.4299 16.4002 21.4499C16.3502 21.4499 16.3302 21.4099 16.3402 21.3599C16.3402 21.2499 16.3102 21.1899 16.1902 21.1999C16.1302 21.1999 16.1002 21.1699 16.1002 21.1099C16.1002 21.0099 16.0802 20.9399 15.9602 20.9499C15.8802 20.9499 15.8702 20.8999 15.8702 20.8399C15.8702 20.7899 15.8702 20.7199 15.8202 20.7199C15.5702 20.7199 15.6302 20.5299 15.6202 20.3999C15.6102 20.2899 15.5902 20.2299 15.4702 20.2399C15.4302 20.2399 15.3802 20.2199 15.3902 20.1799C15.4002 20.0299 15.3402 19.9799 15.2002 19.9799C15.1502 19.9799 15.1702 19.8999 15.1502 19.8899C14.9602 19.7399 14.8802 19.5399 14.8802 19.3099C14.6302 19.3699 14.7302 18.9699 14.4702 18.9999C14.4302 18.9999 14.4302 18.8099 14.4202 18.7099C14.4102 18.6199 14.4202 18.5499 14.2902 18.5599C14.2202 18.5599 14.1802 18.5399 14.1902 18.4599C14.2002 18.3499 14.1602 18.2999 14.0402 18.2999C13.9102 18.2999 13.9602 18.1899 13.9502 18.1199C13.9202 17.9999 14.0102 17.8299 13.7702 17.8099C13.6602 17.8099 13.7202 17.6299 13.7002 17.5299C13.6802 17.4299 13.7002 17.3299 13.5502 17.3499C13.4902 17.3499 13.4602 17.3099 13.4702 17.2599C13.4702 17.1499 13.4502 17.0999 13.3302 17.0999C13.1702 17.0899 13.2802 16.9399 13.2302 16.8699C13.1802 16.8199 13.1602 16.7599 13.1702 16.6999C13.1802 16.5499 13.1102 16.4599 12.9902 16.3899C12.9702 16.2799 13.0302 16.1399 12.8202 16.1299C12.7102 16.1299 12.7902 15.9799 12.7502 15.9099C12.7002 15.8599 12.6802 15.7999 12.6902 15.7399C12.7002 15.5899 12.6202 15.5099 12.5202 15.4299C12.5202 15.3199 12.5102 15.2099 12.5002 15.0999C12.5002 15.0599 12.5002 14.9899 12.4802 14.9899C12.1402 14.9299 12.3402 14.6499 12.2702 14.4799C12.2002 14.3899 12.2002 14.2899 12.2002 14.1799C12.2002 13.6499 12.2002 13.1199 12.2002 12.5999C12.2002 12.4999 12.2002 12.3899 12.2802 12.3099C12.5202 12.1299 12.7002 11.8999 12.7702 11.5999C12.8802 11.5699 13.0302 11.6299 13.0202 11.4199C13.0202 11.3399 13.1202 11.3699 13.1702 11.3599C13.2702 11.3599 13.3702 11.3499 13.4702 11.3399C13.5202 11.2999 13.5802 11.2799 13.6502 11.2799C13.8002 11.2899 13.8902 11.2099 13.9602 11.1099C14.1702 11.1099 14.3702 11.1099 14.5802 11.0999C14.6702 11.0199 14.7902 11.0299 14.9002 11.0299C15.6202 11.0299 16.3402 11.0299 17.0602 11.0299C17.1702 11.0299 17.2902 11.0299 17.3802 11.0999C17.5202 11.0999 17.6602 11.0999 17.8102 11.0999C17.9002 11.2299 18.0202 11.2699 18.1802 11.2699C18.3702 11.2699 18.5602 11.2699 18.7502 11.2699C18.8502 11.2699 18.9402 11.2699 19.0202 11.3399C19.1002 11.4799 19.2302 11.5199 19.3802 11.5099C19.5002 11.5099 19.6302 11.4899 19.7402 11.5699C19.8202 11.5699 19.8902 11.5699 19.9702 11.5699C20.0602 11.7999 20.3102 11.6899 20.4602 11.7999C20.5402 11.9399 20.6602 11.9799 20.8202 11.9799C20.9402 11.9799 21.0702 11.9499 21.1802 12.0499C21.2502 12.1599 21.3402 12.2399 21.4902 12.2299C21.5502 12.2299 21.6202 12.2499 21.6702 12.2899C21.7302 12.4099 21.8302 12.4899 21.9702 12.4699C22.0302 12.4699 22.1002 12.4899 22.1502 12.5299C22.2702 12.5399 22.4002 12.5099 22.4102 12.7099C22.4102 12.8099 22.5602 12.7499 22.6402 12.7699C22.7402 12.7999 22.8802 12.7499 22.8602 12.9299C22.8602 12.9899 22.9202 12.9999 22.9702 12.9999C23.0202 12.9999 23.1002 12.9999 23.1002 13.0399C23.1002 13.3099 23.3002 13.2299 23.4402 13.2499C23.5302 13.2599 23.6002 13.2599 23.5902 13.3799C23.5902 13.4499 23.6102 13.4899 23.6902 13.4899C23.8002 13.4899 23.8302 13.5299 23.8502 13.6399C23.8802 13.7999 24.0302 13.7199 24.1302 13.7399C24.2202 13.7699 24.3202 13.7399 24.3102 13.8899C24.3102 13.9699 24.3602 13.9799 24.4202 13.9799C24.5102 13.9799 24.5502 14.0099 24.5502 14.1099C24.5502 14.1699 24.5702 14.2199 24.6402 14.2199C24.7502 14.2199 24.7902 14.2499 24.8002 14.3699C24.8202 14.5299 24.9702 14.4399 25.0502 14.4699C25.1402 14.4999 25.2702 14.4699 25.2502 14.6299C25.2502 14.6899 25.2902 14.7199 25.3402 14.7099C25.4602 14.7099 25.5002 14.7499 25.4902 14.8699C25.4902 14.9299 25.5302 14.9599 25.5802 14.9499C25.7002 14.9499 25.7402 14.9999 25.7302 15.1099C25.7302 15.1499 25.7502 15.1899 25.8002 15.1899C25.9102 15.1899 25.9802 15.2199 25.9702 15.3499C25.9702 15.4299 26.0302 15.4299 26.0902 15.4299C26.1702 15.4299 26.2102 15.4599 26.2102 15.5399C26.2102 15.6299 26.2402 15.6799 26.3302 15.6699C26.4302 15.6699 26.4602 15.7099 26.4502 15.7999C26.4502 15.8799 26.4902 15.9099 26.5702 15.9099C26.6302 15.9099 26.6902 15.9099 26.6802 15.9999C26.6802 16.1099 26.7202 16.1599 26.8302 16.1599C26.9002 16.1599 26.9302 16.1999 26.9302 16.2699C26.9302 16.3499 26.9502 16.4099 27.0502 16.4099C27.1302 16.4099 27.1702 16.4399 27.1702 16.5199C27.1702 16.5599 27.1902 16.6199 27.2002 16.6199C27.4802 16.6199 27.3902 16.8599 27.4202 16.9999C27.4202 17.0399 27.4202 17.0999 27.4702 17.0899C27.6102 17.0899 27.6802 17.1399 27.6602 17.2899C27.8802 17.2799 27.8402 17.5799 28.0302 17.5899C28.0902 17.5899 28.1202 17.6199 28.1202 17.6799C28.1202 17.7799 28.1402 17.8499 28.2602 17.8399C28.3402 17.8399 28.3502 17.8899 28.3502 17.9499C28.3502 18.0099 28.3502 18.0799 28.4202 18.0799C28.6302 18.0599 28.5702 18.2199 28.5902 18.3199C28.6402 18.3699 28.6602 18.4299 28.6502 18.4899C28.6402 18.6399 28.7102 18.7299 28.8302 18.7899C29.0202 18.7699 29.0702 18.8799 29.0602 19.0399C29.0602 19.1399 29.0202 19.2999 29.2202 19.2799C29.3102 19.2799 29.2802 19.3699 29.2902 19.4299C29.3302 19.5599 29.2302 19.7699 29.5002 19.7699C29.5502 19.7699 29.5402 19.8499 29.5402 19.8899C29.5402 19.9399 29.5402 19.9999 29.6102 19.9999C29.8102 19.9799 29.7502 20.1499 29.7802 20.2399C29.8302 20.2899 29.8502 20.3499 29.8402 20.4099C29.8302 20.5599 29.9002 20.6499 30.0202 20.7099C30.0702 20.7599 30.0902 20.8199 30.0802 20.8899C30.0702 21.0399 30.1402 21.1299 30.2602 21.1999C30.2902 21.2999 30.2202 21.4399 30.4202 21.4499C30.5502 21.4499 30.4702 21.6199 30.5002 21.7199C30.5302 21.8199 30.5002 21.9199 30.6502 21.9299C30.7902 21.9299 30.7002 22.0899 30.7302 22.1699C30.7702 22.2199 30.7902 22.2799 30.7902 22.3499C30.7802 22.4999 30.8502 22.5899 30.9702 22.6599C30.9702 22.6599 31.0402 22.7699 31.0302 22.8299C31.0202 22.9799 31.1002 23.0699 31.2102 23.1399C31.2102 23.2499 31.2202 23.3599 31.2302 23.4699C31.2302 23.5199 31.2302 23.5899 31.2702 23.5899C31.4902 23.5899 31.4402 23.7499 31.4502 23.8699C31.4502 23.9799 31.4202 24.1099 31.6202 24.1099C31.7102 24.1099 31.6802 24.2099 31.6802 24.2599C31.6802 24.3599 31.6902 24.4699 31.6902 24.5699C31.7302 24.6199 31.7502 24.6799 31.7502 24.7499C31.7402 24.8999 31.8202 24.9899 31.9202 25.0599C31.9202 25.1399 31.9202 25.2199 31.9202 25.2899C31.9602 25.3399 31.9802 25.3999 31.9802 25.4699C31.9702 25.6199 32.0402 25.7099 32.1502 25.7799C32.1502 25.9299 32.1502 26.0799 32.1602 26.2399C32.1602 26.3499 32.1202 26.5099 32.3302 26.5099C32.4002 26.5099 32.3802 26.5999 32.3902 26.6499C32.3902 26.7999 32.4002 26.9499 32.4102 27.1099C32.4102 27.1799 32.4102 27.2399 32.5102 27.2399C32.6302 27.2399 32.6302 27.3099 32.6302 27.3999C32.6302 27.6599 32.6402 27.9299 32.6502 28.1899C32.7002 28.2499 32.7102 28.3199 32.7002 28.3899C32.6902 28.5299 32.7802 28.5999 32.8702 28.6799C32.8702 28.9899 32.8702 29.2899 32.8902 29.5899C32.8902 29.7099 32.8302 29.8699 33.0602 29.8799C33.1502 29.8799 33.1102 29.9999 33.1102 30.0699C33.1102 30.6499 33.1202 31.2299 33.1302 31.7999C33.1302 31.9099 33.0902 32.0599 33.2902 32.0399C33.3102 32.0399 33.3502 32.0599 33.3502 32.0699C33.3502 32.3399 33.5602 32.2699 33.7002 32.2899C33.7802 32.2999 33.8402 32.3099 33.8302 32.4099C33.8302 32.4999 33.8802 32.5199 33.9502 32.5199C34.0002 32.5199 34.0802 32.5199 34.0802 32.5899C34.0602 32.7999 34.2202 32.7299 34.3202 32.7599C34.3802 32.8799 34.4702 32.9499 34.6202 32.9399C34.6802 32.9399 34.7502 32.9499 34.7902 33.0099C34.7802 33.1899 34.8702 33.2499 35.0402 33.2399C35.1102 33.3599 35.2002 33.4299 35.3402 33.4199C35.4002 33.4199 35.4702 33.4299 35.5102 33.4799C35.5002 33.6499 35.5702 33.7299 35.7502 33.7099C35.8302 33.7099 35.9002 33.7199 35.9802 33.7299C36.0202 33.7599 36.0402 33.7999 36.0802 33.8299C36.2302 33.9399 36.3802 33.8799 36.3902 33.6899C36.4002 33.4799 36.3902 33.2599 36.3902 33.0499C36.3902 32.9499 36.3902 32.8399 36.4502 32.7499C36.4502 32.5899 36.4502 32.4299 36.4502 32.2799C36.5802 32.1899 36.6202 32.0599 36.6102 31.9099C36.6102 31.6499 36.6102 31.3899 36.6102 31.1199C36.6102 31.0199 36.6102 30.9099 36.6802 30.8299C36.6802 30.5699 36.6802 30.2999 36.6902 30.0399C36.6902 29.9799 36.6602 29.8899 36.7502 29.8899C36.9502 29.8899 36.9102 29.7599 36.9102 29.6399C36.9102 29.4799 36.9102 29.3199 36.9202 29.1599C36.9202 29.0399 36.8802 28.8899 37.0902 28.8899C37.1602 28.8899 37.1402 28.7999 37.1402 28.7499C37.1402 28.5399 37.1502 28.3299 37.1602 28.1299C37.1602 28.0799 37.1402 27.9799 37.1902 27.9699C37.5102 27.9399 37.3502 27.6899 37.3902 27.5299C37.4302 27.4099 37.3202 27.2099 37.5702 27.1999C37.6202 27.1999 37.6102 27.1199 37.6102 27.0799C37.6102 26.9699 37.6202 26.8599 37.6302 26.7399C37.8602 26.6499 37.7502 26.3999 37.8602 26.2499C37.8602 26.1699 37.8602 26.0899 37.8602 26.0199C37.9702 25.9499 38.0502 25.8599 38.0302 25.7099C38.0302 25.6499 38.0502 25.5799 38.0902 25.5299C38.1102 25.4099 38.0502 25.2599 38.2702 25.2699C38.3302 25.2699 38.3202 25.1999 38.3202 25.1499C38.3202 25.0099 38.3302 24.8599 38.3402 24.7199C38.3402 24.6699 38.3202 24.5799 38.3902 24.5799C38.6202 24.5799 38.5602 24.4199 38.5702 24.2999C38.5702 24.1899 38.5502 24.0699 38.7302 24.0799C38.8402 24.0799 38.7902 23.9699 38.8002 23.9099C38.8302 23.7899 38.7302 23.5999 38.9902 23.5799C39.0802 23.5799 39.0302 23.4099 39.0402 23.3199C39.0602 23.2199 39.0202 23.1099 39.1902 23.1099C39.3002 23.1099 39.2602 23.0099 39.2802 22.9499C39.3202 22.8299 39.2202 22.6299 39.4802 22.6199C39.5602 22.6199 39.5302 22.4799 39.5302 22.4099C39.5302 22.2399 39.5802 22.1399 39.7702 22.1499C39.8902 22.0899 39.9602 21.9899 39.9502 21.8499C39.9502 21.7899 39.9602 21.7199 40.0102 21.6799C40.0402 21.5799 39.9702 21.4199 40.1802 21.4399C40.2402 21.4399 40.2502 21.3899 40.2502 21.3399C40.2502 21.2899 40.2502 21.2099 40.2902 21.2199C40.5102 21.2299 40.4902 21.0699 40.4802 20.9499C40.4702 20.7599 40.5502 20.7099 40.7202 20.7199C40.9802 20.5499 41.1402 20.3099 41.2102 19.9999C41.2402 19.8999 41.1802 19.7399 41.3802 19.7599C41.4502 19.7599 41.4502 19.6899 41.4502 19.6299C41.4502 19.5699 41.4602 19.5099 41.5402 19.5199C41.6602 19.5199 41.6902 19.4699 41.6902 19.3599C41.6902 19.2999 41.7202 19.2699 41.7802 19.2699C41.8902 19.2699 41.9402 19.2299 41.9302 19.1199C41.9302 19.0499 41.9702 19.0199 42.0402 19.0299C42.1302 19.0299 42.1702 18.9899 42.1602 18.8999C42.1602 18.8399 42.1802 18.7799 42.2502 18.7899C42.3602 18.7899 42.4102 18.7499 42.4002 18.6399C42.4002 18.6099 42.4302 18.5599 42.4402 18.5599C42.6902 18.5799 42.6302 18.3699 42.6502 18.2499C42.6702 18.1299 42.7002 18.0899 42.8202 18.0799C42.9502 18.0699 43.1502 18.1199 43.1302 17.8699C43.3602 17.9099 43.3202 17.5799 43.5202 17.5899C43.5802 17.5899 43.6102 17.5599 43.6102 17.4999C43.6102 17.3799 43.6502 17.3399 43.7602 17.3499C43.8002 17.3499 43.8502 17.3399 43.8502 17.2899C43.8302 17.0799 44.0002 17.0999 44.1002 17.1099C44.2902 17.1099 44.3302 17.0299 44.3302 16.8699C44.3502 16.8499 44.3802 16.8199 44.4102 16.8199C44.7302 16.8199 44.8702 16.5799 45.0502 16.3799C45.0302 16.1899 45.1402 16.1399 45.3102 16.1399C45.4202 16.1399 45.5402 16.1699 45.5602 15.9699C45.5602 15.8499 45.7202 15.9199 45.8102 15.8999C45.9102 15.8799 46.0302 15.9199 46.0302 15.7399C46.0302 15.6199 46.1602 15.6799 46.2202 15.6599C46.3302 15.6299 46.5002 15.7099 46.5102 15.4799C46.5102 15.3799 46.6602 15.4499 46.7402 15.4199C46.7902 15.3699 46.8502 15.3499 46.9102 15.3599C47.0602 15.3699 47.1502 15.2999 47.2202 15.1799C47.2202 15.1799 47.3302 15.1099 47.3902 15.1199C47.5402 15.1299 47.6302 15.0499 47.7002 14.9499C47.8102 14.9499 47.9202 14.9399 48.0302 14.9299C48.0702 14.9299 48.1402 14.9199 48.1402 14.8999C48.1902 14.5899 48.4402 14.7299 48.6102 14.6999C48.7302 14.6699 48.9102 14.7599 48.9202 14.5199C48.9202 14.4499 49.0102 14.4799 49.0602 14.4699C49.2402 14.4699 49.4302 14.4499 49.6102 14.4499C49.7202 14.3699 49.8502 14.3899 49.9802 14.3899C50.1402 14.3899 50.2602 14.3599 50.3402 14.2199C50.5902 14.2199 50.8502 14.2199 51.1002 14.2099C51.1702 14.1499 51.2602 14.1399 51.3502 14.1399C51.8102 14.1399 52.2702 14.1399 52.7402 14.1399C52.8302 14.1399 52.9202 14.1499 52.9902 14.2099C53.1402 14.2099 53.2902 14.2099 53.4402 14.2299C53.5502 14.2399 53.7002 14.1899 53.7102 14.3999C53.7102 14.5099 53.8602 14.4599 53.9402 14.4599C54.1102 14.4599 54.2102 14.4999 54.1902 14.6999C54.1702 14.8799 54.2502 14.9599 54.4302 14.9499C54.4802 14.9999 54.5002 15.0599 54.4902 15.1199C54.4802 15.2699 54.5502 15.3599 54.6702 15.4299C54.7502 15.5099 54.7502 15.6199 54.7502 15.7199C54.7502 16.3099 54.7502 16.8999 54.7502 17.4899C54.7502 17.5899 54.7502 17.6999 54.6802 17.7899C54.6802 17.7999 54.6802 17.8199 54.6802 17.8299C54.5402 17.9099 54.5102 18.0399 54.5102 18.1899C54.5102 18.3899 54.5702 18.5999 54.4402 18.7899C54.3302 18.8599 54.2502 18.9499 54.2602 19.0999C54.2602 19.1599 54.2402 19.2299 54.2002 19.2799C54.2002 19.3599 54.2002 19.4399 54.2002 19.5099C53.9602 19.5999 54.0702 19.8499 53.9702 19.9999C53.9602 20.1199 54.0002 20.2699 53.7902 20.2599C53.7302 20.2599 53.7402 20.3299 53.7402 20.3799C53.7302 20.5199 53.7202 20.6499 53.7102 20.7899C53.7102 20.8799 53.7102 20.9699 53.5802 20.9699C53.4902 20.9699 53.5002 21.0399 53.4802 21.0999C53.4502 21.2399 53.5602 21.4499 53.2802 21.4699C53.2202 21.4699 53.2602 21.6199 53.2402 21.6899C53.1302 21.7599 53.0502 21.8499 53.0602 21.9999C53.0602 22.0599 53.0502 22.1299 53.0002 22.1699C52.8902 22.2399 52.8102 22.3299 52.8202 22.4799C52.8202 22.5399 52.8102 22.6099 52.7602 22.6499C52.6402 22.7199 52.5702 22.8099 52.5802 22.9599C52.5802 23.0199 52.5702 23.0899 52.5202 23.1299C52.5102 23.2499 52.5402 23.3799 52.3402 23.3799C52.2402 23.3799 52.3102 23.5299 52.2802 23.5999C52.1802 23.6599 52.1002 23.7399 52.0502 23.8499C51.9302 23.9199 51.8602 24.0099 51.8702 24.1499C51.8702 24.2099 51.8602 24.2799 51.8102 24.3299C51.7902 24.4299 51.8602 24.5799 51.6502 24.5799C51.5302 24.5799 51.5902 24.7099 51.5702 24.7699C51.5402 24.8799 51.6202 25.0399 51.3902 25.0599C51.2702 25.0599 51.3402 25.2399 51.3202 25.3299C51.3002 25.4199 51.3302 25.5299 51.1802 25.5199C51.0902 25.5199 51.0902 25.5899 51.0802 25.6499C51.0802 25.7099 51.0802 25.7699 51.0002 25.7699C50.8802 25.7699 50.8502 25.8299 50.8602 25.9299C50.8602 25.9699 50.8602 26.0299 50.8002 26.0199C50.5902 25.9999 50.6302 26.1499 50.6202 26.2699C50.6202 26.3899 50.6202 26.4899 50.4402 26.5099C50.3202 26.5199 50.3902 26.6899 50.3702 26.7799C50.3502 26.8699 50.3702 26.9699 50.2202 26.9699C50.0902 26.9699 50.1502 27.0799 50.1302 27.1499C50.1002 27.2699 50.1802 27.4599 49.9402 27.4499C49.8802 27.4499 49.8902 27.5199 49.8902 27.5699C49.8902 27.6499 49.8702 27.6999 49.7802 27.6899C49.6802 27.6899 49.6602 27.7399 49.6602 27.8199C49.6602 27.8799 49.6602 27.9499 49.5802 27.9399C49.4202 27.9299 49.4402 28.0399 49.4202 28.1399C49.4002 28.2499 49.4702 28.4399 49.2402 28.4199C49.1802 28.4199 49.1902 28.4899 49.1802 28.5299C49.1802 28.5699 49.1602 28.6399 49.1502 28.6399C48.8702 28.6499 48.9602 28.8799 48.9302 29.0199C48.9202 29.0799 48.9102 29.1299 48.8402 29.1299C48.7402 29.1299 48.6902 29.1599 48.7002 29.2699C48.7002 29.3199 48.7002 29.3799 48.6302 29.3799C48.4102 29.3599 48.4802 29.5399 48.4602 29.6399C48.4402 29.7399 48.4902 29.8799 48.3002 29.8599C48.2402 29.8599 48.2202 29.8999 48.2202 29.9499C48.2202 30.0599 48.1802 30.0999 48.0702 30.1099C47.9202 30.1299 48.0002 30.2799 47.9802 30.3699C47.9502 30.4699 47.9802 30.5799 47.8202 30.5699C47.7602 30.5699 47.7402 30.6099 47.7402 30.6699C47.7402 30.7799 47.7102 30.8199 47.5902 30.8299C47.4302 30.8499 47.5202 30.9999 47.4902 31.0899C47.4602 31.1799 47.5002 31.3099 47.3302 31.2899C47.2702 31.2899 47.2402 31.3299 47.2502 31.3799C47.2502 31.4899 47.2102 31.5299 47.1002 31.5399C46.9502 31.5499 47.0502 31.6999 47.0102 31.7699C46.8502 31.9299 46.6602 32.0599 46.5502 32.2599C46.5402 32.3799 46.5502 32.5099 46.3602 32.5199C46.2602 32.5199 46.3102 32.6799 46.2902 32.7699C46.2702 32.8699 46.2902 32.9799 46.1302 32.9699C46.0702 32.9699 46.0502 33.0099 46.0502 33.0699C46.0502 33.1799 46.0102 33.2299 45.9002 33.2199C45.8402 33.2199 45.8202 33.2599 45.8202 33.3199C45.8202 33.4299 45.7802 33.4799 45.6702 33.4699C45.6102 33.4699 45.5902 33.5099 45.5902 33.5699C45.5902 33.6799 45.5502 33.7199 45.4402 33.7299C45.2802 33.7299 45.3902 33.8899 45.3402 33.9599C45.2202 34.0199 45.1502 34.1099 45.1602 34.2599C45.1602 34.3199 45.1502 34.3899 45.0902 34.4299C44.9902 34.4899 44.9102 34.5699 44.8502 34.6799C44.6702 34.6599 44.6002 34.7499 44.6102 34.9299C44.6302 35.0999 44.5602 35.1999 44.3702 35.1699C44.1102 35.3499 44.1102 35.6899 44.3702 35.8899C44.5302 35.8899 44.6202 35.9299 44.6102 36.1199C44.6102 36.2199 44.5702 36.3999 44.7902 36.3799C44.8702 36.3799 44.8502 36.4599 44.8502 36.5099C44.8502 36.5699 44.8702 36.6199 44.9402 36.6199C45.0602 36.6199 45.0902 36.6799 45.0802 36.7799C45.0802 36.8199 45.1002 36.8699 45.1502 36.8599C45.3702 36.8399 45.3002 37.0199 45.3302 37.1199C45.3502 37.2299 45.3202 37.3499 45.5002 37.3399C45.5802 37.3399 45.5802 37.4099 45.5802 37.4599C45.5802 37.5399 45.6002 37.5799 45.6902 37.5799C45.7802 37.5799 45.8202 37.6099 45.8202 37.7099C45.8202 37.7999 45.8502 37.8399 45.9502 37.8399C46.0402 37.8399 46.0502 37.8899 46.0602 37.9599C46.0602 37.9999 46.0902 38.0599 46.1002 38.0599C46.3802 38.0599 46.2702 38.2799 46.3102 38.4199C46.3202 38.4699 46.3102 38.5499 46.3902 38.5399C46.6002 38.5199 46.5302 38.6799 46.5602 38.7799C46.6102 38.8899 46.6902 38.9699 46.7902 39.0299C46.8402 39.1399 46.9302 39.2099 47.0202 39.2799C47.0402 39.3899 46.9802 39.5399 47.1902 39.5199C47.2702 39.5199 47.2602 39.5899 47.2702 39.6399C47.2702 39.6899 47.2702 39.7599 47.3302 39.7499C47.5402 39.7299 47.5002 39.8899 47.5202 39.9999C47.5402 40.1199 47.5202 40.2499 47.7002 40.2299C47.7602 40.2299 47.7502 40.2999 47.7602 40.3399C47.7602 40.3799 47.7802 40.4499 47.7902 40.4499C48.0602 40.4499 47.9902 40.6599 48.0102 40.8099C48.0202 40.8899 48.0402 40.9499 48.1302 40.9399C48.1902 40.9399 48.2402 40.9599 48.2402 41.0299C48.2402 41.1399 48.2802 41.1799 48.3902 41.1899C48.5402 41.2099 48.4402 41.3499 48.4802 41.4299C48.5302 41.5399 48.6102 41.6199 48.7102 41.6799C48.7102 41.8899 48.7502 42.0699 48.9602 42.1499C49.1502 42.1299 49.2002 42.2399 49.2002 42.3999C49.2002 42.5099 49.1702 42.6399 49.3702 42.6399C49.4902 42.6399 49.4302 42.7899 49.4402 42.8599C49.4402 43.0299 49.4902 43.1299 49.6802 43.1199C49.7302 43.1699 49.7502 43.2299 49.7402 43.2899C49.7302 43.4399 49.8002 43.5299 49.9202 43.5899C49.9702 43.6999 50.0502 43.7799 50.1502 43.8399C50.1802 43.9399 50.1202 44.0799 50.3202 44.0899C50.4502 44.0899 50.4002 44.2599 50.3902 44.3299C50.3902 44.5099 50.4602 44.5699 50.6302 44.5599C50.6802 44.5999 50.7002 44.6699 50.7002 44.7299C50.6902 44.8799 50.7602 44.9699 50.8802 45.0299C50.9302 45.1399 51.0102 45.2199 51.1102 45.2799C51.1202 45.3999 51.0802 45.5299 51.2902 45.5399C51.4002 45.5399 51.3402 45.7199 51.3602 45.8099C51.3802 45.9099 51.3602 45.9999 51.5102 45.9999C51.6202 45.9999 51.5802 46.0999 51.6002 46.1599C51.6402 46.2799 51.5402 46.4699 51.8002 46.4899C51.8902 46.4899 51.8402 46.6599 51.8602 46.7499C51.8802 46.8499 51.8602 46.9599 52.0202 46.9499C52.0802 46.9499 52.1002 46.9999 52.0902 47.0499C52.0902 47.1599 52.1202 47.2099 52.2402 47.2099C52.3402 47.2099 52.3202 47.2799 52.3302 47.3399C52.3602 47.4799 52.2502 47.6899 52.5302 47.7099C52.6002 47.7099 52.5602 47.8799 52.5702 47.9799C52.5802 48.0699 52.5702 48.1699 52.7102 48.1699C52.8402 48.1699 52.7902 48.2799 52.8102 48.3499C52.8402 48.4699 52.7502 48.6399 52.9902 48.6699C53.0902 48.6699 53.0302 48.8399 53.0502 48.9299C53.0702 49.0299 53.0302 49.1399 53.2002 49.1399C53.3102 49.1399 53.2702 49.2399 53.2902 49.2999C53.3202 49.4199 53.2202 49.6199 53.4802 49.6299C53.5602 49.6299 53.5102 49.7499 53.5302 49.8199C53.5602 49.9299 53.4802 50.0999 53.7102 50.1099C53.8102 50.1099 53.7402 50.2599 53.7702 50.3399C53.8102 50.3899 53.8302 50.4499 53.8302 50.5199C53.8202 50.6699 53.8902 50.7599 54.0102 50.8299C54.0302 50.9299 53.9602 51.0899 54.1702 51.0699C54.2502 51.0699 54.2502 51.1299 54.2502 51.1899C54.2502 51.3099 54.2502 51.4299 54.2602 51.5499C54.3002 51.5999 54.3202 51.6599 54.3202 51.7299C54.3102 51.8799 54.3902 51.9699 54.4902 52.0399C54.4902 52.1199 54.4902 52.1999 54.4902 52.2699C54.5802 52.3799 54.5602 52.5099 54.5502 52.6399C54.5502 52.7999 54.5802 52.9199 54.7202 52.9999C54.8002 53.0899 54.8002 53.1899 54.8002 53.2999C54.8002 53.9899 54.8002 54.6799 54.8002 55.3699C54.8002 55.4699 54.8002 55.5799 54.7302 55.6699C54.7302 55.7899 54.7602 55.9199 54.5502 55.9299C54.4502 55.9299 54.5102 56.0799 54.4902 56.1599C54.4602 56.2699 54.5102 56.4199 54.3202 56.3899C54.2902 56.3899 54.2502 56.4099 54.2602 56.4399C54.2802 56.6499 54.1302 56.6099 54.0102 56.6199C53.9602 56.6699 53.9002 56.6899 53.8402 56.6799C53.6902 56.6699 53.6002 56.7499 53.5302 56.8599H53.0602C52.9802 56.9299 52.8802 56.9399 52.7902 56.9399C52.2802 56.9399 51.7702 56.9399 51.2602 56.9399C51.1602 56.9399 51.0702 56.9399 50.9902 56.8699H50.4202C50.3402 56.7199 50.2102 56.6799 50.0602 56.6899C49.9402 56.6899 49.8102 56.7099 49.6902 56.6299C49.5402 56.6299 49.3902 56.6299 49.2402 56.6099C49.1302 56.5999 48.9702 56.6499 48.9702 56.4399C48.9702 56.3599 48.8702 56.3899 48.8102 56.3899C48.7102 56.3899 48.6002 56.3899 48.5002 56.3799C48.4102 56.1499 48.1602 56.2599 48.0102 56.1499C47.9102 56.1499 47.8102 56.1399 47.7102 56.1299C47.6202 56.1299 47.5502 56.1299 47.5402 55.9999C47.5302 55.8299 47.3802 55.9399 47.3002 55.8999C47.2302 55.7899 47.1402 55.7099 46.9902 55.7199C46.9302 55.7199 46.8602 55.7099 46.8202 55.6599C46.7002 55.6499 46.5702 55.6999 46.5602 55.4899C46.5602 55.3799 46.4002 55.4399 46.3102 55.4199C46.2102 55.3999 46.1002 55.4199 46.1002 55.2599C46.1002 55.1299 45.9802 55.1899 45.9102 55.1699C45.7902 55.1399 45.6002 55.2199 45.6102 54.9799C45.6102 54.9199 45.5402 54.9399 45.4902 54.9299C45.4502 54.9299 45.3802 54.9099 45.3802 54.8999C45.3802 54.6199 45.1502 54.7199 45.0202 54.6799C44.9702 54.6599 44.9002 54.6799 44.9002 54.5999C44.9002 54.4899 44.8602 54.4399 44.7402 54.4499C44.6502 54.4499 44.6402 54.3899 44.6402 54.3199C44.6402 54.2499 44.6102 54.2099 44.5402 54.2199C44.4302 54.2199 44.3902 54.1799 44.3802 54.0699C44.3602 53.9099 44.2102 53.9999 44.1202 53.9699C44.0302 53.9399 43.9002 53.9699 43.9202 53.8099C43.9202 53.7499 43.8902 53.7199 43.8302 53.7199C43.7202 53.7199 43.6602 53.6899 43.6702 53.5699C43.6702 53.5099 43.6302 53.4799 43.5802 53.4899C43.4702 53.4899 43.4302 53.4599 43.4202 53.3399C43.4202 53.1799 43.2602 53.2799 43.1902 53.2399C43.1702 53.2199 43.1402 53.1999 43.1402 53.1599C43.1002 52.7999 42.9102 52.6099 42.5502 52.5699C42.5202 52.5699 42.4902 52.5399 42.4702 52.5199C42.4402 52.4199 42.5002 52.2599 42.2902 52.2799C42.2202 52.2899 42.2102 52.2199 42.2102 52.1599C42.2102 52.0999 42.2102 52.0399 42.1202 52.0499C42.0002 52.0499 41.9702 51.9899 41.9802 51.8899C41.9802 51.8299 41.9602 51.7899 41.9002 51.7999C41.7902 51.7999 41.7402 51.7599 41.7502 51.6499C41.7502 51.6099 41.7402 51.5599 41.6902 51.5599C41.4802 51.5799 41.5002 51.4199 41.5102 51.3099C41.5202 51.1199 41.4302 51.0799 41.2702 51.0799C41.2502 51.0599 41.2202 51.0299 41.2202 50.9999C41.2202 50.6799 40.9802 50.5399 40.7802 50.3599C40.7502 50.2599 40.8102 50.0999 40.6002 50.1199C40.5302 50.1199 40.5302 50.0399 40.5302 49.9899C40.5302 49.9299 40.5202 49.8699 40.4402 49.8799C40.3202 49.8799 40.2902 49.8199 40.3002 49.7199C40.3002 49.6899 40.2802 49.6399 40.2602 49.6399C39.9902 49.6399 40.0802 49.4299 40.0502 49.2999C40.0402 49.2399 40.0502 49.1599 39.9602 49.1599C39.7902 49.1599 39.8302 49.0499 39.8102 48.9499C39.7902 48.8299 39.8502 48.6599 39.6202 48.6699C39.5602 48.6699 39.5802 48.5999 39.5702 48.5499C39.5702 48.5099 39.5502 48.4399 39.5402 48.4399C39.2502 48.4399 39.3602 48.1999 39.3302 48.0499C39.3202 47.9999 39.3302 47.9399 39.2602 47.9399C39.0502 47.9599 39.1202 47.7999 39.1002 47.6899C39.0502 47.6399 39.0302 47.5799 39.0402 47.5199C39.0502 47.3699 38.9802 47.2799 38.8602 47.2099C38.8402 47.0999 38.8902 46.9599 38.6902 46.9399C38.5902 46.9299 38.6402 46.7599 38.6302 46.6599C38.6102 46.5599 38.6302 46.4599 38.4902 46.4699C38.4102 46.4699 38.4102 46.4099 38.4102 46.3499C38.4102 46.2099 38.3902 46.0799 38.3802 45.9399C38.3802 45.8399 38.3802 45.7599 38.2402 45.7499C38.1102 45.7499 38.1802 45.6099 38.1602 45.5399C38.1302 45.4199 38.2002 45.2499 37.9802 45.2599C37.9102 45.2599 37.9302 45.1699 37.9302 45.1199C37.9302 44.9899 37.9102 44.8699 37.9102 44.7399C37.9102 44.6399 37.9102 44.5499 37.7602 44.5499C37.6802 44.5499 37.6802 44.4899 37.6802 44.4299C37.6802 44.3099 37.6802 44.1899 37.6702 44.0699C37.6302 44.0199 37.6102 43.9599 37.6102 43.8899C37.6202 43.7399 37.5402 43.6499 37.4402 43.5699C37.4402 43.4899 37.4402 43.4099 37.4402 43.3399C37.3302 43.1799 37.3802 42.9999 37.3702 42.8299C37.3702 42.6799 37.3402 42.5499 37.2002 42.4699L37.3202 42.5499Z" fill="#BECF60"/>
<path d="M30.59 12.6099C30.49 12.5799 30.33 12.6499 30.35 12.4399C30.35 12.3799 30.3 12.3699 30.25 12.3699C30.15 12.3699 30.09 12.3499 30.09 12.2299C30.09 12.0699 29.93 12.1799 29.86 12.1299C29.79 12.0099 29.7 11.9399 29.55 11.9499C29.49 11.9499 29.42 11.9399 29.38 11.8799C29.38 11.7199 29.33 11.6399 29.15 11.6399C29.04 11.6399 28.87 11.6699 28.9 11.4599C28.9 11.3999 28.84 11.3999 28.79 11.3999C28.7 11.3999 28.65 11.3699 28.66 11.2799C28.66 11.2299 28.66 11.1699 28.6 11.1699C28.46 11.1799 28.4 11.1199 28.4 10.9799C28.4 10.9299 28.34 10.9399 28.31 10.9299C28.27 10.9299 28.2 10.9199 28.2 10.9099C28.18 10.6199 27.95 10.6899 27.78 10.6599C27.71 10.6499 27.71 10.5999 27.71 10.5499C27.71 10.4899 27.71 10.4199 27.63 10.4299C27.43 10.4599 27.46 10.1299 27.24 10.1999C27.22 10.1199 27.2 10.0499 27.2 9.96989C27.2 9.85989 27.2 9.74989 27.04 9.76989C26.98 9.76989 26.96 9.72989 26.96 9.66989C26.96 9.55989 26.93 9.49989 26.81 9.50989C26.75 9.50989 26.72 9.47989 26.72 9.41989C26.73 9.28989 26.68 9.24989 26.56 9.24989C26.48 9.24989 26.49 9.17989 26.49 9.12989C26.49 9.07989 26.49 9.00989 26.44 9.01989C26.23 9.03989 26.25 8.87989 26.25 8.76989C26.25 8.58989 26.17 8.52989 26.01 8.52989C25.96 8.47989 25.94 8.41989 25.95 8.35989C25.96 8.20989 25.89 8.11989 25.77 8.04989C25.74 7.95989 25.81 7.80989 25.6 7.80989C25.47 7.80989 25.56 7.64989 25.52 7.56989C25.48 7.51989 25.45 7.45989 25.46 7.38989C25.47 7.23989 25.4 7.14989 25.28 7.07989C25.24 7.02989 25.22 6.96989 25.22 6.89989C25.23 6.74989 25.16 6.65989 25.04 6.58989C24.95 6.47989 24.97 6.34989 24.97 6.22989C24.97 6.06989 24.94 5.94989 24.8 5.86989C24.8 5.78989 24.8 5.70989 24.8 5.63989C24.72 5.52989 24.73 5.39989 24.74 5.26989C24.74 5.10989 24.71 4.98989 24.57 4.89989C24.57 4.81989 24.57 4.73989 24.57 4.65989C24.51 4.58989 24.5 4.49989 24.5 4.40989C24.5 3.92989 24.5 3.44989 24.5 2.96989C24.5 2.87989 24.51 2.78989 24.57 2.71989V2.47989C24.71 2.38989 24.74 2.26989 24.75 2.10989C24.75 1.90989 24.69 1.69989 24.82 1.50989C24.93 1.43989 25.01 1.34989 25 1.19989C25 1.13989 25.02 1.06989 25.06 1.01989C25.06 0.939887 25.06 0.869887 25.07 0.789887C25.53 0.509887 26.02 0.389887 26.55 0.469887C26.62 0.479887 26.69 0.489887 26.75 0.539887C26.82 0.649887 26.91 0.729887 27.06 0.719887C27.12 0.719887 27.19 0.729887 27.24 0.779887C27.36 0.779887 27.51 0.759887 27.48 0.969887C27.48 1.02989 27.54 1.02989 27.59 1.02989C27.68 1.02989 27.73 1.04989 27.72 1.14989C27.72 1.20989 27.72 1.26989 27.81 1.25989C27.93 1.24989 27.96 1.29989 27.99 1.41989C28.02 1.55989 28.18 1.48989 28.27 1.51989C28.36 1.54989 28.44 1.52989 28.43 1.65989C28.43 1.74989 28.48 1.76989 28.55 1.75989C28.63 1.75989 28.68 1.77989 28.67 1.86989C28.66 1.97989 28.72 2.00989 28.82 1.99989C28.87 1.99989 28.92 2.00989 28.92 2.07989C28.91 2.20989 28.97 2.24989 29.09 2.23989C29.17 2.23989 29.17 2.29989 29.17 2.35989C29.17 2.41989 29.17 2.47989 29.25 2.46989C29.38 2.45989 29.42 2.51989 29.41 2.63989C29.41 2.69989 29.45 2.71989 29.5 2.71989C29.61 2.70989 29.66 2.75989 29.65 2.86989C29.65 2.92989 29.67 2.95989 29.73 2.95989C29.84 2.94989 29.89 2.98989 29.88 3.10989C29.88 3.19989 29.93 3.21989 30 3.20989C30.06 3.20989 30.12 3.21989 30.11 3.29989C30.11 3.40989 30.15 3.44989 30.26 3.45989C30.43 3.47989 30.34 3.63989 30.37 3.72989C30.4 3.81989 30.37 3.92989 30.52 3.90989C30.57 3.90989 30.62 3.92989 30.61 3.98989C30.6 4.11989 30.66 4.15989 30.78 4.14989C30.86 4.14989 30.85 4.21989 30.85 4.27989C30.85 4.35989 30.87 4.40989 30.96 4.39989C31.05 4.39989 31.1 4.41989 31.09 4.51989C31.09 4.53989 31.09 4.55989 31.09 4.56989C31.23 4.63989 31.32 4.84989 31.39 4.86989C31.56 4.91989 31.55 5.00989 31.57 5.11989C31.59 5.22989 31.55 5.38989 31.76 5.36989C31.82 5.36989 31.82 5.42989 31.82 5.47989C31.82 5.56989 31.85 5.61989 31.94 5.60989C32.02 5.60989 32.06 5.64989 32.05 5.72989C32.04 5.83989 32.09 5.87989 32.19 5.86989C32.26 5.86989 32.28 5.90989 32.29 5.96989C32.29 6.01989 32.28 6.10989 32.35 6.09989C32.57 6.07989 32.54 6.24989 32.53 6.35989C32.53 6.54989 32.61 6.59989 32.77 6.58989C32.83 6.62989 32.84 6.69989 32.84 6.75989C32.84 6.90989 32.9 6.99989 33.02 7.05989C33.21 7.03989 33.27 7.13989 33.25 7.30989C33.23 7.47989 33.29 7.57989 33.48 7.55989C33.54 7.59989 33.55 7.66989 33.55 7.72989C33.55 7.87989 33.61 7.96989 33.73 8.02989C33.76 8.12989 33.69 8.28989 33.9 8.26989C33.98 8.26989 33.96 8.33989 33.97 8.39989C33.97 8.44989 33.97 8.51989 34.02 8.50989C34.24 8.48989 34.22 8.65989 34.21 8.77989C34.2 8.96989 34.3 9.00989 34.45 9.00989C34.47 9.02989 34.49 9.04989 34.49 9.06989C34.44 9.37989 34.71 9.46989 34.88 9.61989C35.03 9.74989 35.1 9.58989 35.17 9.48989C35.22 9.44989 35.28 9.41989 35.35 9.42989C35.5 9.44989 35.59 9.35989 35.66 9.25989C35.74 9.25989 35.81 9.25989 35.89 9.24989C35.94 9.20989 36 9.18989 36.07 9.18989C36.22 9.20989 36.31 9.11989 36.38 9.01989H36.61C36.66 8.96989 36.72 8.94989 36.79 8.94989C36.94 8.95989 37.03 8.87989 37.1 8.77989C37.18 8.77989 37.26 8.77989 37.33 8.76989C37.38 8.72989 37.43 8.70989 37.48 8.71989C37.63 8.72989 37.74 8.65989 37.82 8.54989C37.94 8.54989 38.06 8.54989 38.18 8.52989C38.22 8.52989 38.29 8.50989 38.29 8.49989C38.32 8.19989 38.55 8.32989 38.71 8.29989C38.81 8.27989 38.92 8.28989 39.02 8.28989C39.07 8.24989 39.13 8.22989 39.2 8.22989C39.35 8.23989 39.44 8.15989 39.52 8.05989C39.67 8.05989 39.82 8.05989 39.97 8.03989C40.08 8.02989 40.24 8.08989 40.24 7.86989C40.24 7.80989 40.31 7.81989 40.36 7.81989C40.5 7.81989 40.65 7.80989 40.79 7.80989C40.89 7.80989 40.99 7.81989 40.98 7.66989C40.98 7.56989 41.06 7.58989 41.12 7.58989C41.31 7.58989 41.5 7.58989 41.69 7.57989C41.8 7.48989 41.93 7.50989 42.06 7.51989C42.22 7.51989 42.34 7.47989 42.42 7.34989C42.58 7.34989 42.74 7.34989 42.89 7.34989C43.07 7.22989 43.28 7.28989 43.47 7.28989C43.63 7.28989 43.77 7.25989 43.86 7.11989C44.82 7.11989 45.78 7.11989 46.74 7.11989C46.82 7.22989 46.91 7.30989 47.05 7.29989C47.11 7.29989 47.18 7.30989 47.22 7.36989C47.25 7.46989 47.2 7.62989 47.4 7.59989C47.44 7.59989 47.48 7.62989 47.47 7.66989C47.44 7.86989 47.59 7.82989 47.69 7.84989C47.73 7.88989 47.76 7.93989 47.76 7.99989C47.75 8.34989 47.85 8.70989 47.69 9.05989C47.58 9.12989 47.5 9.21989 47.52 9.36989C47.52 9.42989 47.51 9.49989 47.46 9.53989C47.35 9.60989 47.27 9.69989 47.28 9.84989C47.28 9.90989 47.27 9.97989 47.22 10.0299C47.11 10.0999 47.03 10.1799 47.04 10.3199C47.04 10.3499 47.04 10.3999 47.02 10.4099C46.81 10.5299 46.83 10.7699 46.73 10.9499C46.63 10.9799 46.46 10.9199 46.5 11.1299C46.5 11.1499 46.47 11.1999 46.46 11.1999C46.25 11.1699 46.27 11.3499 46.25 11.4599C46.23 11.5699 46.24 11.6799 46.07 11.6699C45.99 11.6699 46 11.7399 46 11.7999C46 11.8599 45.98 11.9099 45.91 11.9099C45.8 11.9099 45.75 11.9499 45.76 12.0599C45.76 12.1199 45.73 12.1499 45.67 12.1499C45.56 12.1499 45.52 12.1899 45.51 12.2999C45.51 12.4599 45.35 12.3499 45.29 12.4099C45.07 12.5099 44.92 12.6499 44.8 12.8799C44.69 12.8999 44.54 12.8399 44.54 13.0499C44.54 13.1699 44.38 13.0999 44.3 13.1199C44.2 13.1499 44.09 13.0999 44.08 13.2799C44.07 13.4199 43.91 13.3399 43.82 13.3599C43.72 13.3899 43.61 13.3499 43.6 13.5199C43.6 13.6499 43.44 13.5799 43.36 13.5999C43.25 13.6299 43.11 13.5699 43.12 13.7699C43.12 13.8499 43.04 13.8299 42.99 13.8299C42.88 13.8299 42.77 13.8399 42.66 13.8499C42.61 13.8899 42.55 13.9099 42.48 13.9099C42.33 13.8999 42.24 13.9799 42.17 14.0799C42.07 14.0799 41.96 14.0899 41.86 14.0899C41.77 14.0899 41.68 14.0799 41.68 14.2199C41.68 14.3199 41.61 14.3099 41.55 14.3099C41.36 14.3099 41.17 14.3199 40.97 14.3299C40.87 14.4099 40.74 14.3999 40.63 14.3899C40.47 14.3899 40.33 14.4199 40.24 14.5599C39.84 14.5599 39.44 14.5699 39.05 14.5799C38.98 14.6399 38.89 14.6499 38.8 14.6499C38.32 14.6499 37.84 14.6499 37.36 14.6499C37.27 14.6499 37.18 14.6399 37.11 14.5799C36.87 14.5799 36.63 14.5799 36.39 14.5699C36.3 14.4299 36.16 14.3999 36 14.3999C35.81 14.3999 35.6 14.4499 35.42 14.3399C35.1 14.3399 34.78 14.2999 34.46 14.3399C34.32 14.4199 34.29 14.5499 34.29 14.7099C34.29 15.1099 34.29 15.5099 34.29 15.9099C34.29 16.0699 34.33 16.1899 34.46 16.2799C34.46 16.4399 34.46 16.5999 34.46 16.7499C34.51 16.7999 34.53 16.8599 34.52 16.9299C34.51 17.0799 34.59 17.1699 34.69 17.2499C34.69 17.4499 34.71 17.6499 34.69 17.8499C34.68 17.9899 34.81 18.2299 34.5 18.2299C34.3 18.6999 33.92 18.3599 33.63 18.4299C33.58 18.4399 33.51 18.4299 33.51 18.3499C33.51 18.2199 33.46 18.1799 33.34 18.1799C33.26 18.1799 33.27 18.1099 33.27 18.0599C33.27 17.8699 33.25 17.6699 33.25 17.4799C33.21 17.4299 33.19 17.3699 33.19 17.2999C33.2 17.1499 33.12 17.0599 33.02 16.9799C33.02 16.7399 33.02 16.5099 33.01 16.2699C32.95 16.1999 32.94 16.1099 32.94 16.0199C32.94 15.5399 32.94 15.0499 32.94 14.5699C32.94 14.4799 32.95 14.3899 33.01 14.3199C33.01 14.1299 33.01 13.9399 33.01 13.7499C33.01 13.6499 32.98 13.6099 32.87 13.6099C32.75 13.6099 32.63 13.6099 32.51 13.5999C32.4 13.5999 32.3 13.6299 32.29 13.4399C32.29 13.3099 32.13 13.3999 32.05 13.3599C31.97 13.2499 31.89 13.1699 31.74 13.1799C31.68 13.1799 31.61 13.1699 31.56 13.1199C31.45 13.0999 31.3 13.1599 31.3 12.9399C31.3 12.8299 31.15 12.9099 31.07 12.8799C31 12.7599 30.91 12.6899 30.77 12.6999C30.71 12.6999 30.64 12.6899 30.6 12.6399L30.59 12.6099Z" fill="#8EB554"/>
<path d="M33.4801 58.59C33.4001 58.59 33.3201 58.59 33.2501 58.59C33.1401 58.68 33.0101 58.66 32.8901 58.66C32.7401 58.66 32.6101 58.6899 32.5301 58.8299C32.4201 58.9199 32.2901 58.8999 32.1701 58.8999C32.0201 58.8999 31.8901 58.9299 31.8101 59.07C31.7001 59.07 31.5901 59.0699 31.4801 59.0799C31.4401 59.0799 31.3701 59.08 31.3701 59.09C31.3101 59.43 31.0301 59.2499 30.8501 59.3099C30.7401 59.3999 30.6101 59.3799 30.4901 59.3699C30.3301 59.3699 30.2101 59.41 30.1301 59.54C30.0301 59.63 29.9101 59.62 29.7901 59.61C29.6301 59.61 29.4901 59.6399 29.4001 59.7799C29.1701 59.7799 28.9301 59.7899 28.7001 59.7999C28.5101 59.9099 28.3001 59.86 28.1001 59.86C27.9501 59.86 27.8201 59.8999 27.7301 60.0299C27.6501 60.0299 27.5701 60.0299 27.5001 60.0299C27.4101 60.1099 27.2901 60.1 27.1801 60.11C26.2701 60.11 25.3601 60.11 24.4501 60.11C24.3401 60.11 24.2201 60.1099 24.1301 60.0299C24.0301 60.0299 23.9201 60.0199 23.8201 60.0299C23.7201 60.0299 23.6401 60.03 23.6501 59.8899C23.6501 59.8399 23.6301 59.78 23.5701 59.79C23.3601 59.82 23.4201 59.6599 23.4001 59.5499C23.3501 59.4899 23.3301 59.4199 23.3301 59.3499C23.3301 58.9999 23.3301 58.65 23.3301 58.29C23.3301 58.22 23.3501 58.15 23.4001 58.09V57.86C23.5201 57.79 23.6001 57.6999 23.5801 57.5499C23.5801 57.4899 23.5901 57.4199 23.6401 57.3699C23.8801 57.1799 24.0701 56.9599 24.1101 56.6399C24.1201 56.5199 24.0801 56.3899 24.2901 56.3799C24.4001 56.3799 24.3301 56.2 24.3701 56.11C24.4001 56.03 24.3701 55.9299 24.5101 55.9399C24.5801 55.9399 24.6201 55.91 24.6101 55.84C24.6001 55.72 24.6501 55.6799 24.7601 55.6899C24.8201 55.6899 24.8501 55.6599 24.8501 55.5999C24.8501 55.4899 24.8801 55.44 25.0001 55.45C25.0601 55.45 25.0901 55.42 25.0901 55.36C25.0701 55.23 25.1401 55.19 25.2601 55.2C25.3101 55.2 25.3401 55.1699 25.3301 55.1299C25.3001 54.9199 25.4701 54.9899 25.5601 54.9599C25.7901 54.8599 25.9301 54.7299 26.0501 54.4899C26.1301 54.4899 26.2001 54.4699 26.2801 54.4699C26.4501 54.4799 26.5301 54.4099 26.5301 54.2399C26.5801 54.1899 26.6401 54.1699 26.7001 54.1699C26.8501 54.1799 26.9401 54.1099 27.0001 53.9899C27.0001 53.9899 27.1101 53.92 27.1701 53.93C27.3201 53.94 27.4101 53.87 27.4701 53.75C27.4701 53.75 27.5801 53.6899 27.6501 53.6899C27.8001 53.6999 27.8901 53.63 27.9601 53.52C28.0701 53.49 28.2201 53.5599 28.2201 53.3499C28.2201 53.2699 28.3201 53.2999 28.3701 53.2999C28.4701 53.2899 28.5701 53.2899 28.6701 53.2799C28.7801 53.1899 28.9101 53.2099 29.0301 53.2099C29.1801 53.2099 29.3101 53.18 29.3901 53.04C29.6501 52.9 29.9301 52.9899 30.2001 52.9699C30.3601 52.9699 30.5001 52.9499 30.5901 52.7999C30.6401 52.7999 30.6801 52.7999 30.7301 52.7999C30.8201 52.7199 30.9401 52.7299 31.0501 52.7299C32.1501 52.7299 33.2501 52.7299 34.3601 52.7299C34.4701 52.7299 34.5901 52.7299 34.6801 52.7999C34.8401 52.7999 34.9901 52.7999 35.1501 52.8099C35.2401 52.9499 35.3801 52.99 35.5401 52.9799C35.6601 52.9799 35.7801 52.96 35.8801 53.04C35.9501 53.04 36.0201 53.04 36.0901 53.04C36.4234 53.0533 36.5901 52.8933 36.5901 52.5599C36.4701 52.3699 36.5301 52.1599 36.5201 51.9599C36.5201 51.8099 36.4901 51.6799 36.3501 51.5999C36.3501 51.4899 36.3401 51.3799 36.3301 51.2599C36.3301 51.2099 36.3401 51.1399 36.2901 51.1399C36.0401 51.1499 36.1201 50.96 36.1001 50.84C36.0801 50.73 36.1001 50.6299 35.9401 50.6399C35.8801 50.6399 35.8701 50.59 35.8701 50.54C35.8701 50.43 35.8401 50.3899 35.7301 50.3799C35.5701 50.3799 35.6801 50.2199 35.6301 50.1499C35.5101 49.8299 35.5101 49.5099 35.6301 49.1899C35.7201 49.1499 35.9001 49.2199 35.8601 49.0099C35.8601 48.9499 35.9201 48.95 35.9701 48.95C36.1401 48.95 36.3001 48.9599 36.4701 48.9699C36.5101 48.9699 36.5701 48.97 36.5601 49.02C36.5601 49.17 36.6301 49.1899 36.7601 49.2199C36.8801 49.2399 36.8101 49.3999 36.8301 49.4899C36.8501 49.5899 36.8301 49.6899 36.9801 49.6699C37.0201 49.6699 37.0701 49.6899 37.0601 49.7299C37.0501 49.8699 37.1001 49.93 37.2501 49.93C37.3101 49.93 37.2901 50.0099 37.2901 50.0499C37.2901 50.1599 37.3101 50.2699 37.3101 50.3899C37.3501 50.5099 37.4401 50.5799 37.5301 50.6399C37.5301 50.7199 37.5301 50.7899 37.5401 50.8699C37.5801 50.9199 37.6001 50.97 37.5901 51.02C37.5801 51.17 37.6501 51.28 37.7601 51.36C37.7601 51.52 37.7601 51.6699 37.7701 51.8299C37.8501 51.9299 37.8401 52.0599 37.8301 52.1699C37.8301 52.3299 37.8601 52.4699 38.0001 52.5599C38.0001 52.8999 38.0201 53.25 38.0201 53.59C38.0201 53.7 38.0601 53.7499 38.1701 53.7399C38.2801 53.7399 38.3901 53.7499 38.5001 53.7599C38.6101 53.7599 38.7301 53.7399 38.7201 53.9199C38.7201 54.0099 38.8201 53.9699 38.8701 53.9899C39.0001 54.0299 39.2001 53.9099 39.2201 54.1899C39.2201 54.2599 39.3601 54.2099 39.4401 54.2399C39.5101 54.3499 39.6001 54.4299 39.7501 54.4199C39.8101 54.4199 39.8801 54.4299 39.9201 54.4799C39.9901 54.5999 40.0801 54.67 40.2301 54.66C40.2901 54.66 40.3601 54.6699 40.4001 54.7199C40.4001 54.8699 40.4501 54.97 40.6401 54.95C40.7601 54.95 40.9101 54.9099 40.9101 55.1299C40.9101 55.2399 41.0901 55.17 41.1801 55.2C41.2601 55.22 41.3601 55.1999 41.3501 55.3299C41.3501 55.3999 41.3801 55.43 41.4501 55.43C41.5601 55.43 41.6101 55.4599 41.6101 55.5799C41.6101 55.6999 41.7101 55.6499 41.7701 55.6699C41.8901 55.7099 42.1001 55.6099 42.0801 55.8699C42.0801 55.9299 42.1501 55.9199 42.1901 55.9199C42.2601 55.9199 42.3201 55.9399 42.3101 56.0299C42.3001 56.1399 42.3701 56.16 42.4601 56.16C42.5101 56.16 42.5701 56.17 42.5601 56.2299C42.5301 56.4399 42.7001 56.3699 42.8001 56.3999C42.9001 56.5999 43.0901 56.7899 43.2801 56.8799C43.3201 56.9699 43.2401 57.14 43.4601 57.11C43.5401 57.1 43.5301 57.1799 43.5301 57.2299C43.5301 57.3099 43.5501 57.3499 43.6401 57.3499C43.7301 57.3499 43.7801 57.3799 43.7701 57.4699C43.7701 57.4899 43.7701 57.54 43.7701 57.54C43.9201 57.58 44.0201 57.67 44.0401 57.84C44.2901 57.81 44.2201 58.0199 44.2501 58.1499C44.2701 58.2399 44.2601 58.3199 44.3901 58.3099C44.4801 58.3099 44.4901 58.3699 44.4901 58.4399C44.4901 58.5099 44.5001 58.5699 44.5901 58.5599C44.7101 58.5499 44.7201 58.6199 44.7201 58.7099C44.7201 58.7499 44.7201 58.8099 44.7601 58.8099C45.0401 58.7899 44.9301 59.0099 44.9701 59.1399C44.9801 59.1899 44.9501 59.2799 45.0201 59.2799C45.2501 59.2699 45.1801 59.4499 45.2101 59.5599C45.2301 59.6599 45.1901 59.7899 45.3701 59.7799C45.4701 59.7799 45.4201 59.89 45.4401 59.95C45.4801 60.07 45.3701 60.2599 45.6301 60.2799C45.7201 60.2799 45.6701 60.45 45.6801 60.54C45.7001 60.64 45.6601 60.7599 45.8301 60.7399C45.9101 60.7399 45.9101 60.7999 45.9101 60.8499C45.9101 60.9699 45.9101 61.0899 45.9201 61.2099C45.9601 61.2499 45.9801 61.31 45.9801 61.36C45.9701 61.51 46.0401 61.6199 46.1501 61.6999C46.1501 61.9399 46.1601 62.1699 46.1701 62.4099C46.2401 62.4999 46.2401 62.5999 46.2401 62.7099C46.2401 63.3199 46.2401 63.93 46.2401 64.54C46.2401 64.64 46.2401 64.7499 46.1701 64.8399C46.1701 64.9999 46.1701 65.1599 46.1601 65.3099C45.9301 65.3999 46.0401 65.6499 45.9301 65.7999C45.9101 65.9099 45.9801 66.0599 45.7601 66.0599C45.6501 66.0599 45.7001 66.2099 45.7001 66.2799C45.7001 66.4599 45.6401 66.5399 45.4601 66.5199C45.4101 66.5599 45.3501 66.58 45.2801 66.58C45.1301 66.57 45.0401 66.64 44.9701 66.76C44.8101 66.76 44.6501 66.76 44.4901 66.76C44.4001 66.53 44.1501 66.6299 44.0001 66.5299C43.9001 66.5299 43.7901 66.51 43.6901 66.51C43.6701 66.51 43.6301 66.51 43.6201 66.51C43.5401 66.37 43.3201 66.29 43.3001 66.22C43.2701 66.01 43.1301 66.07 43.0201 66.04C42.9201 66.01 42.7801 66.0599 42.8001 65.8799C42.8001 65.8199 42.7601 65.7999 42.7001 65.7999C42.6701 65.7999 42.6101 65.7999 42.6101 65.7999C42.5701 65.6499 42.3801 65.6 42.3401 65.51C42.2801 65.38 42.2401 65.32 42.1101 65.32C42.1601 65.08 41.7901 65.1399 41.8201 64.9099C41.8201 64.8499 41.7501 64.8599 41.7101 64.8499C41.6501 64.8499 41.5801 64.8499 41.5901 64.7699C41.6201 64.5599 41.4501 64.6299 41.3601 64.5999C41.2601 64.4099 41.0701 64.21 40.8801 64.12C40.8501 64.02 40.9201 63.8599 40.7101 63.8799C40.6301 63.8799 40.6301 63.81 40.6401 63.76C40.6401 63.68 40.6201 63.6399 40.5301 63.6399C40.4401 63.6399 40.3901 63.6199 40.4001 63.5199C40.4001 63.4299 40.3701 63.3899 40.2701 63.3899C40.2101 63.3899 40.1601 63.3699 40.1601 63.2999C40.1601 63.1899 40.1301 63.15 40.0201 63.1399C39.8501 63.1199 39.9401 62.96 39.9101 62.87C39.8801 62.78 39.9001 62.6799 39.7501 62.6999C39.6901 62.6999 39.6601 62.67 39.6601 62.61C39.6601 62.51 39.6401 62.4399 39.5201 62.4499C39.4601 62.4499 39.4301 62.42 39.4301 62.36C39.4301 62.25 39.4001 62.1899 39.2801 62.1999C39.2201 62.1999 39.1901 62.17 39.1901 62.11C39.2001 61.98 39.1501 61.94 39.0301 61.94C38.9301 61.94 38.9801 61.84 38.9601 61.79C38.9101 61.67 39.0201 61.45 38.7601 61.47C38.7401 61.47 38.7101 61.42 38.7101 61.4C38.7401 61.2 38.5901 61.24 38.4801 61.22C38.4201 61.18 38.4101 61.11 38.4101 61.0499C38.4101 60.9 38.3501 60.81 38.2301 60.75C38.1801 60.64 38.1001 60.56 38.0001 60.5C37.9501 60.45 37.9301 60.3899 37.9301 60.3299C37.9401 60.1799 37.8701 60.0899 37.7401 60.0299C37.5801 60.0399 37.5001 59.9999 37.5001 59.8099C37.5001 59.7099 37.5401 59.5299 37.3201 59.5499C37.2701 59.5499 37.2501 59.5099 37.2601 59.4699C37.2901 59.2599 37.1401 59.3099 37.0301 59.2999C37.0101 59.2799 36.9901 59.27 36.9901 59.25C36.9901 58.92 36.7401 58.7799 36.5501 58.5799C36.5401 58.4599 36.5801 58.33 36.3801 58.32C36.2701 58.32 36.3201 58.1699 36.3201 58.0999C36.3201 57.9199 36.2501 57.85 36.0801 57.86C35.9601 57.62 35.7301 57.61 35.5901 57.86C35.4901 57.86 35.3801 57.8799 35.2801 57.8699C35.1801 57.8699 35.1101 57.87 35.1101 58C35.1101 58.1 35.0401 58.09 34.9801 58.09C34.8501 58.09 34.7101 58.11 34.5801 58.11C34.4801 58.11 34.3901 58.11 34.3901 58.25C34.3901 58.33 34.3301 58.3299 34.2701 58.3299C34.1501 58.3299 34.0301 58.3399 33.9101 58.3499C33.8601 58.3899 33.8001 58.41 33.7301 58.41C33.5801 58.4 33.4901 58.4699 33.4201 58.5799L33.4801 58.59Z" fill="#8EB554"/>
<path d="M63.9899 14.9799C64.0199 15.0799 63.9499 15.2399 64.1599 15.2199C64.2399 15.2099 64.2299 15.2899 64.2399 15.3399C64.2399 15.3899 64.2399 15.4599 64.2999 15.4499C64.4499 15.4499 64.4599 15.6299 64.4899 15.6299C64.7599 15.7099 64.7199 15.9299 64.7399 16.1299C64.9799 16.0899 64.8999 16.4399 65.1299 16.4499C65.2299 16.4499 65.1699 16.6099 65.1899 16.6999C65.2099 16.8099 65.1799 16.9299 65.3499 16.9199C65.4299 16.9199 65.4099 16.9899 65.4199 17.0499C65.4199 17.1599 65.4299 17.2699 65.4399 17.3799C65.4799 17.4299 65.4999 17.4899 65.4999 17.5599C65.4899 17.7099 65.5599 17.7999 65.6799 17.8699C65.6799 17.9799 65.6899 18.0899 65.6999 18.2099C65.6999 18.2399 65.6999 18.2999 65.6999 18.2999C66.1199 18.4599 65.8299 18.8199 65.9199 19.0699C66.0199 19.2499 65.9799 19.4399 65.9799 19.6299C65.9799 19.7799 66.0099 19.9099 66.1499 19.9999C66.1499 20.0099 66.1499 20.0299 66.1499 20.0399C66.2299 20.1299 66.2199 20.2499 66.2199 20.3599C66.2199 21.1799 66.2199 21.9899 66.2199 22.8099C66.2199 22.9199 66.2199 23.0399 66.1499 23.1299C66.1499 23.1399 66.1499 23.1599 66.1499 23.1699C66.0199 23.2599 65.9799 23.3799 65.9799 23.5399C65.9799 23.7399 66.0299 23.9499 65.9199 24.1499C65.9199 24.3099 65.9199 24.4599 65.9199 24.6199C65.7899 24.6999 65.7399 24.8299 65.7499 24.9799C65.7499 25.0999 65.7699 25.2399 65.6899 25.3499C65.5499 25.4299 65.5099 25.5499 65.5199 25.7099C65.5199 25.8299 65.5399 25.9699 65.4599 26.0799C65.4599 26.1599 65.4599 26.2299 65.4499 26.3099C65.3399 26.3899 65.2699 26.4799 65.2799 26.6199C65.2799 26.6799 65.2699 26.7499 65.2199 26.7899C65.1999 26.8999 65.2699 27.0499 65.0599 27.0499C64.9699 27.0499 65.0099 27.1499 64.9999 27.1999C64.9899 27.2999 64.9799 27.3999 64.9799 27.4999C64.8699 27.5699 64.7899 27.6599 64.7999 27.8099C64.7999 27.8699 64.7899 27.9399 64.7399 27.9799C64.6299 28.0499 64.5499 28.1399 64.5599 28.2899C64.5599 28.3499 64.5499 28.4199 64.4899 28.4599C64.3799 28.5399 64.2999 28.6299 64.3199 28.7699C64.3199 28.8299 64.3099 28.8999 64.2599 28.9399C64.0799 28.9299 64.0099 29.0099 64.0299 29.1899C64.0399 29.2899 64.0499 29.3999 64.0299 29.4999C64.0299 29.6199 64.0799 29.6299 64.1799 29.6499C64.2999 29.6699 64.5099 29.5899 64.4899 29.8499C64.4899 29.9099 64.5599 29.9099 64.5999 29.8999C64.6899 29.8999 64.7299 29.9299 64.7199 30.0299C64.7199 30.0899 64.7199 30.1499 64.8099 30.1399C64.9399 30.1299 64.9799 30.1799 64.9699 30.2999C64.9699 30.3799 65.0399 30.3799 65.0899 30.3699C65.1699 30.3699 65.2099 30.3999 65.2099 30.4799C65.1999 30.5899 65.2599 30.6199 65.3499 30.6099C65.3899 30.6099 65.4399 30.6099 65.4399 30.6699C65.4299 30.8199 65.4899 30.8699 65.6299 30.8599C65.6899 30.8599 65.6799 30.9299 65.6799 30.9799C65.6799 31.0399 65.6799 31.1099 65.7599 31.0999C65.9699 31.0699 65.8999 31.2399 65.9299 31.3299C66.0599 31.5199 66.2299 31.6699 66.3999 31.8199C66.4299 31.9199 66.3599 32.0799 66.5699 32.0599C66.6299 32.0599 66.6399 32.1099 66.6399 32.1599C66.6399 32.2099 66.6399 32.2899 66.6799 32.2799C66.9599 32.2699 66.8499 32.4899 66.8899 32.6199C66.9099 32.6899 66.8899 32.7699 66.9999 32.7599C67.1199 32.7599 67.1199 32.8299 67.1199 32.9199C67.1199 33.0499 67.1199 33.1799 67.1199 33.2999C67.1199 33.4099 67.1299 33.5199 66.9699 33.4999C66.9499 33.4999 66.8999 33.5299 66.8999 33.5399C66.9199 33.8199 66.6999 33.7199 66.5699 33.7399C66.4299 33.7599 66.2799 33.7399 66.1399 33.7399C66.0299 33.7399 65.9099 33.7499 65.9299 33.5699C65.9299 33.5299 65.9099 33.4799 65.8599 33.4899C65.6399 33.5199 65.6999 33.3399 65.6799 33.2299C65.6599 33.1299 65.6999 32.9999 65.5099 33.0199C65.4299 33.0199 65.4299 32.9599 65.4299 32.8999C65.4299 32.8199 65.4099 32.7699 65.3199 32.7799C65.2299 32.7799 65.1899 32.7499 65.1999 32.6499C65.1999 32.5599 65.1699 32.5099 65.0799 32.5199C64.9999 32.5199 64.9599 32.4899 64.9699 32.4099C64.9699 32.3599 64.9699 32.2899 64.9199 32.2899C64.6599 32.3099 64.7399 32.0999 64.7099 31.9799C64.6899 31.8999 64.7099 31.8099 64.5899 31.8299C64.4999 31.8299 64.4599 31.7899 64.4699 31.6999C64.4699 31.6399 64.4699 31.5799 64.3799 31.5899C64.2699 31.5899 64.2199 31.5499 64.2299 31.4399C64.2299 31.3799 64.1999 31.3499 64.1399 31.3599C64.0299 31.3699 63.9899 31.3199 63.9799 31.2099C63.9699 31.0399 63.7999 31.1299 63.7099 31.0899C63.6299 31.0499 63.5099 31.0899 63.5299 30.9399C63.5299 30.8899 63.4999 30.8399 63.4499 30.8499C63.3399 30.8499 63.2999 30.8199 63.2899 30.6999C63.2899 30.5599 63.1599 30.6199 63.0799 30.6199C63.0999 30.8399 62.7799 30.7999 62.7899 31.0099C62.7899 31.0699 62.7599 31.0999 62.6999 31.0999C62.5799 31.0899 62.5399 31.1399 62.5499 31.2499C62.5499 31.3199 62.5099 31.3499 62.4499 31.3399C62.3399 31.3299 62.3099 31.3899 62.3199 31.4799C62.3199 31.5499 62.2899 31.5799 62.2199 31.5799C62.1899 31.5799 62.1599 31.5799 62.1199 31.5799C62.1599 31.7999 61.8599 31.7799 61.8399 31.9699C61.8399 32.0299 61.8099 32.0599 61.7499 32.0599C61.6199 32.0399 61.5799 32.1099 61.5899 32.2299C61.5899 32.2599 61.5699 32.2999 61.5399 32.2999C61.3899 32.2899 61.3499 32.3599 61.3499 32.4999C61.3499 32.5599 61.2799 32.5499 61.2299 32.5499C61.1499 32.5499 61.1099 32.5799 61.1199 32.6599C61.1199 32.7299 61.1099 32.7899 61.0199 32.7799C60.9099 32.7699 60.8599 32.8099 60.8699 32.9299C60.8699 32.9899 60.8399 33.0199 60.7799 33.0099C60.6699 33.0099 60.6299 33.0399 60.6199 33.1599C60.6199 33.3199 60.4599 33.2099 60.3899 33.2599C60.2899 33.3099 60.2099 33.3999 60.1499 33.4899C60.1099 33.5499 60.0399 33.5599 59.9799 33.5599C59.8299 33.5499 59.7399 33.6199 59.6799 33.7399C59.6999 33.9199 59.5999 33.9899 59.4299 33.9699C59.3799 34.0199 59.3199 34.0399 59.2599 34.0399C59.1099 34.0299 59.0199 34.0999 58.9599 34.2199C58.9599 34.2199 58.9199 34.2599 58.8999 34.2599C58.5699 34.2499 58.4299 34.5099 58.2299 34.6899C58.1499 34.6899 58.0799 34.6899 57.9999 34.6999C57.9499 34.7499 57.8899 34.7699 57.8199 34.7599C57.6699 34.7499 57.5799 34.8199 57.5099 34.9399C57.3999 35.0299 57.2699 35.0099 57.1499 35.0099C56.9999 35.0099 56.8699 35.0399 56.7899 35.1799C56.6099 35.2999 56.4099 35.2399 56.2199 35.2499C56.0599 35.2499 55.9199 35.2699 55.8299 35.4199C55.7499 35.4199 55.6699 35.4199 55.5999 35.4199C55.5099 35.4899 55.4099 35.4899 55.2999 35.4899C54.6099 35.4899 53.9299 35.4899 53.2399 35.4899C53.1399 35.4899 53.0299 35.4899 52.9399 35.4199C52.7799 35.4199 52.6299 35.4199 52.4699 35.4099C52.3799 35.1799 52.1299 35.2899 51.9799 35.1799C51.8999 35.1799 51.8299 35.1799 51.7499 35.1699C51.6799 35.0599 51.5899 34.9799 51.4399 34.9899C51.3799 34.9899 51.3099 34.9699 51.2599 34.9299C51.1899 34.8099 51.0999 34.7399 50.9499 34.7499C50.8899 34.7499 50.8199 34.7399 50.7799 34.6899C50.7099 34.5699 50.6199 34.4999 50.4799 34.5099C50.4199 34.5099 50.3499 34.4999 50.3099 34.4399C50.1699 34.0599 49.8899 33.7199 49.9899 33.2699C50.0099 33.1799 49.9899 33.0799 50.0599 32.9999C50.1799 32.9299 50.2499 32.8399 50.2399 32.6899C50.2399 32.6299 50.2499 32.5599 50.2999 32.5199C50.3299 32.4199 50.2699 32.2599 50.4799 32.2799C50.5499 32.2799 50.5499 32.2099 50.5499 32.1499C50.5499 32.0899 50.5599 32.0299 50.6399 32.0399C50.7499 32.0399 50.7999 31.9999 50.7899 31.8799C50.7899 31.8199 50.8199 31.7899 50.8799 31.7899C50.9899 31.7899 51.0499 31.7699 51.0399 31.6399C51.0399 31.5599 51.0799 31.5499 51.1499 31.5499C51.1999 31.5499 51.2799 31.5499 51.2799 31.4799C51.2599 31.2799 51.3999 31.3099 51.5099 31.2999C51.6799 31.2999 51.7699 31.2399 51.7599 31.0599C51.8099 31.0099 51.8699 30.9899 51.9299 30.9899C52.0799 30.9999 52.1699 30.9299 52.2299 30.8099C52.2199 30.6299 52.3099 30.5599 52.4799 30.5699C52.5299 30.5199 52.5899 30.4999 52.6499 30.5099C52.7999 30.5199 52.8899 30.4499 52.9499 30.3199C53.0599 30.2799 53.1399 30.1899 53.1999 30.0899C53.1999 30.0899 53.3099 30.0199 53.3699 30.0299C53.5199 30.0399 53.6099 29.9699 53.6699 29.8499C53.8399 29.8599 53.9299 29.7999 53.9199 29.6199C53.9699 29.5699 54.0299 29.5499 54.0899 29.5599C54.2399 29.5699 54.3299 29.4999 54.3999 29.3799C54.3999 29.3799 54.5099 29.3099 54.5699 29.3199C54.7199 29.3299 54.8099 29.2599 54.8699 29.1399C54.9599 29.1099 55.1299 29.1799 55.1099 28.9699C55.1099 28.8899 55.1899 28.9199 55.2399 28.8999C55.3799 28.8599 55.5999 28.9699 55.5999 28.6899C55.5999 28.6799 55.6699 28.6699 55.6999 28.6599C55.7399 28.6599 55.8099 28.6499 55.8099 28.6399C55.8599 28.3099 56.1299 28.4599 56.2999 28.4099C56.3199 28.3999 56.3399 28.3799 56.3599 28.3799C56.6899 28.3799 56.8399 28.1399 57.0299 27.9399C57.0299 27.9399 57.1399 27.8699 57.1999 27.8799C57.3499 27.8899 57.4399 27.8199 57.5099 27.6999C57.6199 27.6799 57.7799 27.7399 57.7699 27.5199C57.7699 27.4599 57.8399 27.4699 57.8899 27.4699C58.0199 27.4599 58.1599 27.4399 58.2899 27.4399C58.3799 27.4399 58.4599 27.4399 58.4599 27.3099C58.4599 27.1799 58.5699 27.2399 58.6399 27.2199C58.7599 27.1799 58.9499 27.2899 58.9699 27.0299C58.9699 26.9399 59.1399 26.9999 59.2299 26.9799C59.3199 26.9599 59.4399 26.9999 59.4399 26.8299C59.4399 26.6999 59.5599 26.7699 59.6299 26.7499C59.7399 26.7099 59.9299 26.8099 59.9399 26.5599C59.9399 26.4799 60.0599 26.5099 60.1299 26.5099C60.3599 26.5299 60.4399 26.4199 60.4299 26.2099C60.4299 25.9899 60.4199 25.7599 60.4099 25.5399C60.3399 25.4499 60.3399 25.3499 60.3399 25.2499C60.3399 24.9899 60.3399 24.7299 60.3399 24.4599C60.3399 24.3099 60.3099 24.1799 60.1699 24.0899C60.0899 24.0099 60.0999 23.8999 60.0999 23.7999C60.0999 23.4999 60.0999 23.2099 60.0999 22.9099C60.0999 22.6699 60.0899 22.4299 60.0999 22.1899C60.0999 22.0099 60.0699 21.8599 59.8999 21.7699C59.8199 21.5999 59.8499 21.4299 59.8499 21.2499C59.8499 20.9099 59.8499 20.5699 59.8499 20.2299C59.8399 18.9499 59.8399 17.6699 59.8499 16.3799C59.8399 16.0599 59.8499 15.7499 59.8499 15.4299C59.8499 15.3299 59.8499 15.2399 59.9299 15.1599C60.0599 15.0799 60.1099 14.9499 60.0999 14.7999C60.0999 14.6799 60.0799 14.5399 60.1599 14.4299C60.1799 14.3199 60.1099 14.1699 60.3299 14.1699C60.4399 14.1699 60.3599 14.0199 60.3999 13.9499C60.5699 13.7999 60.7299 13.6399 60.8799 13.4699C61.1999 13.3499 61.5199 13.3499 61.8499 13.4699C61.9499 13.4699 62.0599 13.4799 62.1599 13.4899C62.1899 13.4899 62.2499 13.4899 62.2499 13.4899C62.2899 13.6599 62.5399 13.6999 62.5499 13.7699C62.5899 14.0099 62.7599 13.9199 62.8699 13.9599C62.9499 13.9899 63.0499 13.9599 63.0399 14.0999C63.0399 14.1899 63.0999 14.1999 63.1699 14.1999C63.2199 14.1999 63.2999 14.1999 63.2899 14.2799C63.2699 14.4899 63.4299 14.4199 63.5299 14.4499C63.6299 14.6399 63.8199 14.8399 64.0099 14.9299L63.9899 14.9799Z" fill="#8EB554"/>
<path d="M12.8101 50.41C12.8101 50.65 12.8101 50.88 12.8201 51.12C12.8901 51.22 12.8901 51.33 12.8901 51.44C12.8901 52.43 12.8901 53.43 12.8901 54.42C12.8901 54.53 12.8901 54.65 12.8201 54.74C12.8201 54.82 12.8201 54.9 12.8201 54.97C12.7101 55.04 12.6301 55.13 12.6401 55.28C12.6401 55.34 12.6301 55.41 12.5701 55.45C12.3901 55.43 12.3101 55.51 12.3301 55.69C12.3001 55.72 12.2701 55.75 12.2301 55.75C11.8601 55.77 11.4901 55.83 11.1301 55.71C11.0501 55.71 10.9801 55.71 10.9001 55.7C10.8301 55.59 10.7401 55.51 10.5901 55.52C10.5301 55.52 10.4601 55.5 10.4101 55.46C10.3001 55.45 10.1601 55.5 10.1501 55.28C10.1501 55.17 9.97012 55.23 9.88012 55.21C9.78012 55.19 9.69012 55.21 9.70012 55.06C9.70012 55.02 9.68012 54.98 9.63012 54.98C9.49012 54.99 9.45012 54.94 9.42012 54.8C9.40012 54.69 9.26012 54.75 9.17012 54.73C9.07012 54.7 8.96012 54.73 8.98012 54.57C8.98012 54.51 8.94012 54.48 8.89012 54.49C8.78012 54.49 8.72012 54.46 8.74012 54.34C8.74012 54.28 8.71012 54.25 8.65012 54.25C8.54012 54.25 8.48012 54.22 8.49012 54.1C8.49012 54.06 8.48012 54.01 8.43012 54.02C8.28012 54.04 8.23012 53.97 8.24012 53.83C8.24012 53.8 8.21012 53.76 8.18012 53.77C7.98012 53.8 8.03012 53.64 8.00012 53.54C7.95012 53.43 7.87012 53.35 7.77012 53.3C7.72012 53.19 7.63012 53.12 7.54012 53.05C7.52012 52.94 7.58012 52.8 7.36012 52.79C7.25012 52.79 7.33012 52.64 7.29012 52.57C7.24012 52.52 7.22012 52.46 7.23012 52.4C7.24012 52.25 7.17012 52.16 7.05012 52.1C7.02012 52 7.09012 51.86 6.88012 51.85C6.76012 51.85 6.83012 51.67 6.81012 51.58C6.78012 51.48 6.81012 51.38 6.66012 51.37C6.52012 51.36 6.62012 51.21 6.58012 51.13C6.53012 51.08 6.51012 51.02 6.52012 50.96C6.53012 50.81 6.45012 50.72 6.35012 50.64C6.35012 50.56 6.35012 50.49 6.34012 50.41C6.25012 50.3 6.27012 50.17 6.28012 50.04C6.28012 49.88 6.25012 49.76 6.11012 49.68C5.97012 49.42 6.06012 49.14 6.04012 48.86C6.04012 48.7 6.01012 48.56 5.87012 48.46C5.87012 48.37 5.87012 48.27 5.87012 48.18C5.81012 48.11 5.80012 48.02 5.80012 47.93C5.80012 47.14 5.80012 46.35 5.80012 45.56C5.80012 45.49 5.80012 45.42 5.84012 45.35C6.02012 45.25 6.06012 45.08 6.05012 44.89C6.04012 44.71 6.05012 44.53 6.05012 44.35C6.04012 44.13 6.05012 43.92 6.05012 43.7C6.05012 43.61 6.05012 43.52 6.12012 43.45C6.12012 43.44 6.12012 43.42 6.12012 43.41C6.26012 43.32 6.30012 43.18 6.29012 43.02C6.29012 42.9 6.27012 42.78 6.35012 42.68C6.49012 42.6 6.53012 42.48 6.52012 42.32C6.52012 42.2 6.49012 42.06 6.59012 41.96C6.82012 41.86 6.72012 41.62 6.82012 41.46C6.82012 41.36 6.82012 41.27 6.83012 41.17C6.83678 40.9166 6.71678 40.77 6.47012 40.73H6.40012C6.24012 40.32 5.89012 40.58 5.64012 40.5C5.55012 40.32 5.35012 40.35 5.21012 40.26C5.15012 40.13 5.05012 40.1 4.92012 40.1C4.68012 40.1 4.44012 40.07 4.20012 40.1C3.87012 40.15 3.64012 40 3.43012 39.78C3.36012 39.54 3.33012 39.3 3.46012 39.07C3.64012 38.94 3.84012 39 4.03012 39C4.19012 39 4.33012 38.98 4.42012 38.83C4.58012 38.83 4.73012 38.83 4.89012 38.83C4.98012 38.97 5.12012 39 5.28012 39C5.47012 39 5.68012 38.95 5.86012 39.06C6.02012 39.06 6.17012 39.06 6.33012 39.06C6.42012 39.2 6.56012 39.24 6.72012 39.23C6.83012 39.23 6.96012 39.2 7.06012 39.3C7.19012 39.52 7.41012 39.47 7.61012 39.46C7.70012 39.46 7.71012 39.38 7.72012 39.3C7.72012 39.21 7.72012 39.12 7.79012 39.06C7.90012 38.99 7.98012 38.9 7.97012 38.75C7.97012 38.69 7.98012 38.62 8.04012 38.58C8.20012 38.59 8.29012 38.54 8.27012 38.35C8.25012 38.19 8.29012 38.05 8.51012 38.08C8.64012 38.02 8.71012 37.93 8.70012 37.78C8.70012 37.72 8.71012 37.65 8.76012 37.61C8.79012 37.51 8.72012 37.35 8.93012 37.37C9.01012 37.37 9.00012 37.3 9.00012 37.25C9.00012 37.19 9.00012 37.13 9.08012 37.14C9.20012 37.14 9.24012 37.1 9.23012 36.99C9.23012 36.94 9.25012 36.89 9.31012 36.9C9.44012 36.91 9.48012 36.85 9.47012 36.73C9.47012 36.65 9.53012 36.65 9.59012 36.65C9.65012 36.65 9.71012 36.65 9.70012 36.56C9.69012 36.43 9.75012 36.41 9.86012 36.39C10.0001 36.37 9.92012 36.22 9.96012 36.13C9.99012 36.04 9.96012 35.93 10.1101 35.95C10.1501 35.95 10.2001 35.93 10.1901 35.89C10.1601 35.69 10.3001 35.71 10.4301 35.69C10.5401 35.68 10.6801 35.71 10.6601 35.51C10.6601 35.43 10.7401 35.44 10.7901 35.44C10.8501 35.44 10.9101 35.43 10.9001 35.35C10.9001 35.23 10.9401 35.19 11.0501 35.2C11.1101 35.2 11.1401 35.17 11.1401 35.12C11.1301 35 11.1901 34.97 11.3001 34.97C11.3301 34.97 11.3801 34.95 11.3801 34.94C11.3801 34.66 11.6001 34.73 11.7301 34.72C11.9101 34.7 11.8201 34.56 11.8701 34.49C11.9201 34.44 11.9801 34.42 12.0401 34.42C12.1901 34.43 12.2801 34.36 12.3401 34.24C12.4401 34.21 12.6001 34.28 12.5801 34.07C12.5801 34.01 12.6301 34 12.6801 34C12.7901 34 12.8301 33.97 12.8401 33.86C12.8401 33.7 13.0001 33.81 13.0701 33.76C13.1201 33.71 13.1801 33.69 13.2401 33.7C13.3901 33.71 13.4801 33.63 13.5501 33.52C13.6601 33.52 13.7701 33.52 13.8801 33.51C13.9301 33.51 14.0001 33.52 14.0001 33.47C14.0001 33.21 14.1901 33.3 14.3101 33.28C14.4001 33.27 14.5001 33.27 14.6001 33.26C14.6301 33.26 14.6901 33.26 14.6901 33.25C14.7601 32.91 15.0401 33.09 15.2201 33.04C15.3301 32.95 15.4601 32.97 15.5801 32.98C15.7401 32.98 15.8601 32.94 15.9501 32.81C16.6801 32.81 17.4001 32.81 18.1301 32.81C18.2401 32.81 18.3601 32.78 18.3601 32.96C18.3601 33.04 18.4401 33.02 18.4901 33.02C18.6801 33.02 18.8701 33.03 19.0601 33.04C19.1501 33.27 19.4001 33.16 19.5501 33.27C19.6601 33.29 19.8301 33.22 19.8001 33.44C19.8001 33.51 19.8601 33.5 19.9101 33.5C20.0001 33.5 20.0501 33.53 20.0401 33.62C20.0401 33.67 20.0401 33.73 20.1101 33.72C20.3301 33.7 20.2801 33.85 20.2801 33.97C20.3901 34.3 20.3901 34.63 20.2801 34.96C20.2801 35.07 20.2701 35.18 20.2601 35.3C20.2601 35.35 20.2701 35.42 20.2101 35.42C20.0601 35.42 20.0201 35.49 20.0301 35.63C20.0301 35.65 20.0101 35.68 19.9901 35.68C19.7201 35.66 19.8001 35.87 19.7801 36.01C19.7701 36.12 19.7501 36.18 19.6301 36.17C19.5901 36.17 19.5401 36.18 19.5501 36.23C19.5601 36.38 19.5001 36.43 19.3601 36.43C19.3001 36.43 19.3101 36.5 19.3101 36.55C19.3101 36.63 19.2701 36.67 19.1901 36.66C19.1001 36.66 19.0601 36.69 19.0701 36.79C19.0701 36.81 19.0701 36.84 19.0701 36.86C18.8401 36.83 18.8901 37.15 18.6901 37.15C18.6301 37.15 18.6001 37.18 18.6001 37.24C18.6001 37.35 18.5601 37.39 18.4501 37.4C18.2901 37.4 18.4001 37.56 18.3501 37.62C18.0701 37.65 17.9101 37.82 17.8601 38.1C17.7601 38.12 17.6001 38.06 17.6201 38.26C17.6201 38.32 17.5801 38.34 17.5201 38.34C17.4701 38.34 17.3901 38.34 17.3901 38.37C17.3901 38.65 17.1601 38.56 17.0201 38.6C16.9801 38.6 16.9301 38.6 16.9301 38.65C16.9401 38.8 16.8701 38.85 16.7301 38.84C16.6801 38.84 16.6601 38.88 16.6701 38.92C16.6801 39.04 16.6101 39.07 16.5101 39.06C16.4701 39.06 16.4201 39.07 16.4201 39.12C16.4501 39.33 16.2801 39.31 16.1701 39.31C15.9901 39.31 15.9401 39.39 15.9401 39.55C15.8901 39.61 15.8101 39.62 15.7401 39.62C15.6001 39.62 15.5201 39.69 15.4701 39.81C15.3601 39.85 15.2801 39.94 15.2201 40.05C15.1301 40.08 14.9601 40.01 14.9801 40.22C14.9801 40.28 14.9301 40.3 14.8801 40.29C14.7701 40.29 14.7301 40.32 14.7201 40.44C14.7101 40.59 14.5701 40.52 14.4901 40.53C14.3201 40.54 14.2301 40.59 14.2401 40.77C14.1901 40.82 14.1301 40.84 14.0701 40.84C13.9201 40.83 13.8301 40.9 13.7701 41.02C13.6701 41.05 13.5101 40.99 13.5401 41.2C13.5401 41.26 13.4801 41.27 13.4401 41.27C13.3901 41.27 13.3101 41.27 13.3101 41.31C13.3201 41.57 13.1201 41.49 13.0001 41.52C12.9001 41.54 12.8101 41.53 12.8201 41.67C12.8201 41.73 12.7801 41.75 12.7201 41.75C12.6101 41.75 12.5501 41.77 12.5601 41.89C12.5601 42 12.4601 41.96 12.4001 41.98C12.2801 42.02 12.0701 41.91 12.0801 42.18C12.0801 42.23 12.0101 42.22 11.9601 42.23C11.9101 42.23 11.8401 42.23 11.8501 42.28C11.8601 42.53 11.6601 42.44 11.5501 42.47C11.4501 42.49 11.3701 42.47 11.3701 42.62C11.3701 42.77 11.2101 42.67 11.1401 42.71C10.8801 42.89 10.8801 43.22 11.1401 43.43C11.1401 43.51 11.1401 43.58 11.1401 43.66C11.2201 43.77 11.2101 43.9 11.2001 44.03C11.2001 44.19 11.2301 44.31 11.3701 44.39C11.4601 44.5 11.4401 44.63 11.4401 44.75C11.4401 44.91 11.4801 45.03 11.6101 45.11C11.6101 45.19 11.6101 45.26 11.6201 45.34C11.7001 45.45 11.6901 45.58 11.6801 45.71C11.6801 45.87 11.7101 45.99 11.8501 46.07V46.3C11.9401 46.41 11.9301 46.54 11.9201 46.67C11.9201 46.83 11.9601 46.95 12.0901 47.04C12.0901 47.12 12.0901 47.19 12.1001 47.27C12.1801 47.38 12.1701 47.51 12.1601 47.64C12.1601 47.8 12.2001 47.92 12.3301 48C12.3301 48.08 12.3301 48.16 12.3301 48.23C12.4501 48.42 12.3901 48.63 12.3901 48.83C12.3901 48.98 12.4301 49.11 12.5601 49.2V49.58C12.6601 49.72 12.6301 49.87 12.6301 50.02C12.6301 50.18 12.6501 50.32 12.8001 50.41H12.8101Z" fill="#8EB554"/>
<path d="M34.1902 46.7798C34.1902 46.6998 34.1902 46.6298 34.2002 46.5498C34.5202 46.4098 34.8302 46.4198 35.1502 46.5498C35.1302 46.7298 35.2202 46.8098 35.4002 46.7898C35.5702 46.7698 35.6402 46.8498 35.6302 47.0198C35.6202 47.1998 35.6302 47.3698 35.6302 47.5498C35.6302 47.6598 35.6302 47.7598 35.4702 47.7498C35.4502 47.7498 35.4002 47.7798 35.4002 47.7998C35.4202 48.0398 35.2302 47.9898 35.1102 47.9898C34.9502 47.9898 34.7902 47.9898 34.6302 47.9898C34.5202 47.9898 34.4202 47.9898 34.4302 47.8298C34.4302 47.7898 34.4002 47.7398 34.3602 47.7498C34.1602 47.7798 34.2102 47.6198 34.1802 47.5098C34.0702 47.2698 34.0702 47.0198 34.1802 46.7798H34.1902Z" fill="#C0CF64"/>
<path d="M33.4802 20.1199C33.5802 20.0899 33.7402 20.1399 33.7102 19.9399C33.7102 19.8699 33.7902 19.8799 33.8402 19.8799C33.9902 19.8799 34.1402 19.8799 34.3002 19.8799C34.3902 19.8799 34.4602 19.8999 34.4502 20.0099C34.4502 20.0499 34.4502 20.1099 34.5002 20.0999C34.7502 20.0899 34.6702 20.2799 34.6802 20.3999C34.6902 20.5499 34.6602 20.7099 34.6802 20.8599C34.7002 21.0499 34.6002 21.0899 34.4402 21.0899C34.1202 21.1999 33.8002 21.2199 33.4902 21.0799L33.4702 20.8499C33.3602 20.6099 33.3602 20.3599 33.4702 20.1199H33.4802Z" fill="#BDCC5B"/>
<path d="M68.0802 36.4299C67.9802 36.4599 67.8302 36.4099 67.8502 36.6099C67.8502 36.6799 67.7702 36.6699 67.7202 36.6699C67.5702 36.6699 67.4202 36.6699 67.2702 36.6699C67.1802 36.6699 67.1102 36.6499 67.1202 36.5399C67.1202 36.5099 67.1102 36.4599 67.0902 36.4599C66.7002 36.3299 66.9802 35.9999 66.8902 35.7799C66.8802 35.7399 66.9102 35.6899 66.9502 35.6999C67.1602 35.7299 67.0902 35.5599 67.1202 35.4599C67.3802 35.3399 67.7502 35.3599 67.8802 35.4999C68.1902 35.8199 68.2402 36.0899 68.0802 36.4299Z" fill="#C0CE5D"/>
<path d="M0.320057 38.8398C0.480057 38.8398 0.650057 38.8498 0.810057 38.8398C0.990057 38.8298 1.06006 38.8998 1.05006 39.0798C1.21006 39.4598 1.12006 39.8398 0.790057 40.0598C0.650057 40.1498 0.490057 40.1398 0.330057 40.0698C0.250057 39.9898 0.200057 39.8998 0.110057 39.8298C-0.0499434 39.7098 -0.0299434 39.1698 0.120057 39.0398C0.190057 38.9798 0.260057 38.9098 0.320057 38.8398Z" fill="#BFCD5F"/>
</svg>
