<svg width="15" height="15" viewBox="0 0 15 15" fill="none" xmlns="http://www.w3.org/2000/svg">
<path d="M6.53223 2.05371C5.86035 2.05371 5.23535 2.17871 4.65723 2.42871C4.06348 2.67871 3.55176 3.02246 3.12207 3.45996C2.69238 3.89746 2.34473 4.40527 2.0791 4.9834C1.8291 5.56152 1.7041 6.18652 1.7041 6.8584C1.7041 7.53027 1.8291 8.15527 2.0791 8.7334C2.34473 9.31152 2.69238 9.81934 3.12207 10.2568C3.55176 10.6943 4.06348 11.0381 4.65723 11.2881C5.23535 11.5381 5.86035 11.6631 6.53223 11.6631C7.18848 11.6631 7.81348 11.5381 8.40723 11.2881C8.98535 11.0381 9.49316 10.6943 9.93066 10.2568C10.3682 9.81934 10.7119 9.31152 10.9619 8.7334C11.2119 8.15527 11.3369 7.53027 11.3369 6.8584C11.3369 6.18652 11.2119 5.56152 10.9619 4.9834C10.7119 4.40527 10.3682 3.89746 9.93066 3.45996C9.49316 3.02246 8.98535 2.67871 8.40723 2.42871C7.81348 2.17871 7.18848 2.05371 6.53223 2.05371ZM0.391602 6.8584C0.391602 6.01465 0.555664 5.21777 0.883789 4.46777C1.19629 3.7334 1.62988 3.08887 2.18457 2.53418C2.73926 1.97949 3.3916 1.53809 4.1416 1.20996C4.8916 0.897461 5.68848 0.741211 6.53223 0.741211C7.37598 0.741211 8.16504 0.897461 8.89941 1.20996C9.64941 1.53809 10.3018 1.97949 10.8564 2.53418C11.4111 3.08887 11.8447 3.7334 12.1572 4.46777C12.4854 5.21777 12.6494 6.01465 12.6494 6.8584C12.6494 7.59277 12.5283 8.28418 12.2861 8.93262C12.0439 9.58105 11.7119 10.1709 11.29 10.7021L14.1963 13.6084C14.3369 13.7334 14.4072 13.8896 14.4072 14.0771C14.4072 14.2646 14.3369 14.4209 14.1963 14.5459C14.0713 14.6709 13.9189 14.7334 13.7393 14.7334C13.5596 14.7334 13.4072 14.6709 13.2822 14.5459L10.376 11.6396C9.84473 12.0615 9.25098 12.3896 8.59473 12.624C7.93848 12.8584 7.25098 12.9756 6.53223 12.9756C5.68848 12.9756 4.8916 12.8193 4.1416 12.5068C3.3916 12.1787 2.73926 11.7373 2.18457 11.1826C1.62988 10.6279 1.19629 9.9834 0.883789 9.24902C0.555664 8.49902 0.391602 7.70215 0.391602 6.8584Z" fill="#1A2C37"/>
</svg>
